<svg width="188.20706" height="198.21529" xmlns="http://www.w3.org/2000/svg">
 <title>API Icon</title>

 <metadata>image/svg+xmlOpen Clip Art LibraryAPI Icon2012-02-14T17:55:26http://openclipart.org/detail/168225/api-icon-by-benben3Dapibrickclip artcliparticonlegomonochrome</metadata>
 <g>
  <title>Layer 1</title>
  <g id="layer1">
   <g fill="#0072b5" id="g3876">
    <path fill="#0072b5" d="m94.035614,0c-14.226257,0 -25.75,5.098724 -25.75,11.375c0,1.189636 0.419006,2.328552 1.1875,3.40625l-0.0625,0.031189c14.543488,11.875122 42.949371,8.511139 49.625,-1.125l0,0.46875c0.508362,-0.885803 0.78125,-1.826385 0.78125,-2.78125l-0.031189,-0.125c-0.143951,-6.230774 -11.62619,-11.25 -25.75,-11.25l-0.000061,0.000061zm24.96875,15.21875l-0.34375,11.875c-9.226196,11.011902 -37.921143,13.086304 -50.71875,-0.1875l0.34375,-11.40625l-15.28125,8.9375c-1.374847,-0.100098 -2.780029,-0.1875 -4.21875,-0.1875c-14.226257,0 -25.75,5.098724 -25.75,11.375c0,1.502838 0.696899,2.938171 1.90625,4.25c14.72641,11.252228 42.392731,7.86734 48.96875,-1.625l-0.34375,13.375c-9.226196,11.011902 -37.921143,13.086304 -50.71875,-0.1875l0.25,-9.4375l-19.75,11.5625l91.46875,52.53125l91.40625,-52.84375l-21.03125,-11.90625l-0.28125,9.75c-9.226196,11.011902 -37.921143,13.086304 -50.71875,-0.1875l0.375,-13.03125c14.063934,12.88208 43.439728,9.744873 50.5625,0.031189c0.011414,-0.021179 0.020111,-0.04129 0.031189,-0.0625c0.417358,-0.794098 0.65625,-1.613312 0.65625,-2.46875l-0.031189,-0.125c-0.143921,-6.230774 -11.62616,-11.25 -25.75,-11.25c-1.745911,0 -3.445313,0.103943 -5.09375,0.25l-15.9375,-9.03125l0,0.000061zm1.15625,49.03125l-0.34375,13.40625c-9.226196,11.011902 -37.921143,13.086304 -50.71875,-0.1875l0.34375,-13.03125c14.166687,12.976196 43.873505,9.693451 50.71875,-0.1875z" id="path3825"/>
    <path fill="#0072b5" d="m0.505066,70.181152l85.16626,50.548248l0,76.771576l-85.671356,-48.022858l0.505096,-79.296967z" id="path3805"/>
    <path fill="#0072b5" d="m188.207062,68.370056l-85.671356,53.073639l0,76.771576l85.671356,-48.022858l0,-81.822357z" id="path3805-4"/>
   </g>
  </g>
 </g>
</svg>