<?xml version="1.0" encoding="utf-8"?>
<!-- Generator: Adobe Illustrator 16.0.3, SVG Export Plug-In . SVG Version: 6.00 Build 0)  -->
<!DOCTYPE svg PUBLIC "-//W3C//DTD SVG 1.1//EN" "http://www.w3.org/Graphics/SVG/1.1/DTD/svg11.dtd">
<svg version="1.1" id="Layer_1" xmlns="http://www.w3.org/2000/svg" xmlns:xlink="http://www.w3.org/1999/xlink" x="0px" y="0px"
	 width="465.927px" height="213.796px" viewBox="0 0 465.927 213.796" enable-background="new 0 0 465.927 213.796"
	 xml:space="preserve">
<g>
	<path fill-rule="evenodd" clip-rule="evenodd" stroke="#000000" stroke-width="0.1019" stroke-miterlimit="3.8637" d="M7.85,41.717
		C2.892,26.963-4.604,8.859,8.343,1.271c3.235-1.896,8.634-1.507,14.511,0.641C52.17,12.627,75.946,49.871,78.992,55.417
		c0,0,2.388,0.19,3.637-0.511c1.582-0.886,1.305-2.527,2.316-4.032c1.225-1.822,1.784-3.04,3.501-4.407
		c0.809-0.643,1.631-0.545,2.281-1.35c5.267-6.507,13.827-15.95,27.665-24.485c0,0,4.019-3.654,5.341-1.574
		c0.546,0.861-0.775,1.86-1.793,1.901c-2.048,0.08-2.601,0.55-4.157,1.201c-1.117,0.468-1.915,1.088-2.658,1.608
		c-9.188,6.44-14.406,10.248-19.105,16.485c-1.563,2.073-0.853,1.122-1.39,1.843c-0.809,1.087-2.323,3.188-1.853,2.938
		c4.217-2.24,12.31-7.168,20.794-10.336c6.325-2.36,10.742-4.187,16.629-4.807c1.208-0.127,3.637-0.512,2.651,1.274
		c-0.271,0.494-0.825,0.35-1.385,0.402c-1.308,0.121-2.034-0.375-3.346-0.355c-2.645,0.04-4.021,0.981-6.554,1.744
		c-5.139,1.551-8.048,2.48-12.936,4.701c-5.944,2.702-14.473,8.418-14.473,8.418c-0.028-0.202,2.366,3.047,3.22,5.316
		c0.869,2.313,1.146,3.753,1.285,6.205c0.015,0.288,2.073,1.563,5.068,3.82c1.682,1.34,2.582,2.172,4.03,3.761
		c1.418,1.552,2.281,2.427,3.279,4.277c0.734,1.359,1.337,2.179,1.349,3.724c0.011,1.496-0.188,2.505-1.134,3.662
		c-0.674,0.827-1.236,1.229-2.253,1.552c-1.298,0.415-2.199,0.509-3.491,0.079c-1.18-0.393-1.962-0.687-2.709-1.68
		c-0.591-0.786-0.935-1.355-0.946-2.34c-0.014-1.104,0.331-1.803,1.073-2.621c0.626-0.69,1.179-1.074,2.108-1.121
		c0.605-0.031,0.932,0.193,1.5,0.407c0.848,0.32,1.302,0.791,1.669,1.619c0.227,0.509,0.403,0.896,0.199,1.415
		c-0.124,0.313-0.184,0.676-0.521,0.691c-0.503,0.022-0.281-0.746-0.574-1.156c-0.398-0.556-0.604-0.951-1.209-1.272
		c-0.578-0.308-1.035-0.33-1.672-0.177c-0.666,0.162-1.026,0.57-1.272,1.209c-0.259,0.668,0.017,1.144,0.254,1.817
		c0.252,0.708,0.63,1.037,1.238,1.476c0.666,0.477,1.156,0.598,1.961,0.755c0.706,0.137,1.156,0.151,1.846-0.054
		c1.1-0.328,1.69-0.929,2.197-1.956c0.379-0.769,0.552-2.991,0.523-2.134c-0.02,0.642-0.242-0.975-0.429-1.588
		c-0.456-1.499-1.064-2.258-2.127-3.41c-0.917-1.103-1.454-1.71-2.446-2.746c-2.922-3.049-4.824-4.581-8.38-6.857
		c-1.661-0.065-2.597-0.256-4.212-0.645c-2.111-0.508-3.305-0.918-5.217-1.945l0.369,2.626l0.628,3.002l-1.762,0.659l-1.375-3.927
		l-1.584-1.013c-0.638,0.017-0.987,0.138-1.617,0.226c-0.809,0.114-0.638,1.326-0.96,3.432l-0.158,6.202l0.019,4.529
		c-1.912-0.313-2.977-0.568-4.873-0.964c-1.504-0.313-2.341-0.542-3.835-0.903c-0.906-0.219-1.729-0.582-2.336-0.496
		c-0.948,0.133-1.709,1.323-1.708,2.506c0,0.643,0.269,0.967,0.43,1.588c0.576,2.217,1.897,3.06,2.786,5.171
		c0.54,1.281,1.564,1.958,1.292,3.32c-0.211,1.05-0.963,1.394-1.766,2.102c-0.746,0.66-1.142,1.115-2.051,1.525
		c-0.67,0.301-1.185,0.206-1.763,0.658c-0.801,0.629-0.76,1.403-1.331,2.247c-0.927,1.371-1.778,1.902-3.094,2.908
		c-0.821,0.629-1.377,0.85-2.281,1.352c-1.233,0.68-2.102,0.734-3.293,1.488c-1.858,1.176-2.014,2.859-3.731,4.234
		c-1.556,1.248-2.609,1.719-4.361,2.674c-1.326,0.717-2.088,1.107-3.466,1.719c-1.129,0.502-1.684,1.271-2.917,1.236
		c-0.68-0.021-1.166,0.041-1.702-0.377c-1.094-0.859-0.021-3.088,0.325-3.551c0.92-1.221,1.288-2.861,2.462-4.467
		c0.802-1.092,1.217-1.797,2.314-2.59c1.142-0.824,2.021-0.887,3.293-1.492c1.362-0.65,2.136-1.006,3.465-1.723
		c1.445-0.777,2.243-1.252,3.611-2.155c1.427-0.941,2.268-1.438,3.555-2.56c1.248-1.087,2.024-1.643,3.094-2.906
		c1.018-1.201,1.713-1.823,2.43-3.225c0.697-1.363,1.014-1.585,1.336-3.69c0,0-1.805,2.276-2.979,3.714
		c-1.896,2.319-2.878,3.753-5.177,5.672c-2.133,1.781-3.643,2.379-6.066,3.736c-1.757,0.983-2.766,1.52-4.622,2.295
		c-1.943,0.814-3.118,1.068-5.11,1.746c-1.374,0.471-2.14,0.775-3.551,1.119c-2.01,0.492-3.184,0.748-5.252,0.736
		c-1.469-0.006-2.317,0.021-3.751-0.295c-1.042-0.23-1.532-0.768-2.595-0.871c-1.108-0.111-1.713,0.402-2.827,0.396
		c-1.586-0.006-2.507-0.17-4.01-0.672c-1.343-0.453-2.01-0.973-3.14-1.826c-1.181-0.893-1.392-1.937-2.649-2.719
		c-0.974-0.606-1.618-0.775-2.651-1.276c-1.274-0.616-1.99-0.997-3.141-1.824c-1.291-0.929-2.023-1.549-2.877-2.892
		c-0.923-1.449-0.701-2.642-1.607-4.101c-0.815-1.313-1.84-1.621-2.677-2.92c-1.056-1.641-1.145-2.835-1.691-4.708
		c-0.915-3.131-1.264-4.992-1.367-8.254c-0.102-3.287,0.199-5.183,0.985-8.377c1.014-4.115,1.884-6.551,4.48-9.9
		C6.365,43.238,7.85,41.717,7.85,41.717L7.85,41.717z"/>
	<path fill="#FFFFFF" stroke="#000000" stroke-width="0.1019" stroke-miterlimit="3.8637" d="M92.565,49.392
		c1.092,1.906-0.213,4.355-0.991,4.671c-0.841,0.341-1.328,0.43-2.048,0.082c-0.707-0.342-0.976-0.927-1.064-1.704
		c-0.075-0.652,0.018-1.038,0.177-1.674c0.209-0.834,0.354-1.375,0.957-1.988c0.424-0.432,0.722-0.799,1.328-0.805
		C91.77,47.967,92.118,48.61,92.565,49.392L92.565,49.392z"/>
	<path stroke="#000000" stroke-width="0.1019" stroke-miterlimit="3.8637" d="M88.465,64.181l1.609,2.658
		c0.663-1.05,1.185-1.565,2.141-2.359c1.261-1.049,2.055-1.639,3.61-2.156c0.1,1.934-0.029,3.029-0.127,4.963
		c-0.161,3.22-0.986,4.969-1.113,8.19c-0.051,1.282-0.145,2.021,0.051,3.289c0.156,1.034,0.43,1.58,0.773,2.569
		c0.424,1.224,0.383,2.042,1.06,3.147c0.335,0.547,0.366,1.308,1.008,1.3c0.794-0.008-0.161-1.233-0.284-2.021
		c-0.434-2.755-1.361-4.225-1.399-7.014c-0.042-3.094,0.876-4.76,1.374-7.814c0.387-2.384,1.141-3.703,0.995-6.114
		c-0.054-0.873,0.386-1.694-0.313-2.222c-0.461-0.348-2.938-0.001-4.647,0.651c-1.105,0.423-1.695,0.762-2.686,1.408
		C89.682,63.202,89.243,63.559,88.465,64.181L88.465,64.181z"/>
	<path fill-rule="evenodd" clip-rule="evenodd" stroke="#000000" stroke-width="0.1019" stroke-miterlimit="3.8637" d="
		M83.372,70.458c0.008-0.72-0.245,1.192,0.054,1.847c0.283,0.613,0.711,0.974,1.383,1.042c0.56,0.058,0.986-0.006,1.387-0.4
		c0.483-0.478,0.307-1.024,0.379-1.701c0.087-0.837,0.04-5.567-0.164-4.098c-0.028,0.202,0.975,2.541,4.456,6.791
		c0.985,1.201,1.088,4.807,1.397,7.014c0.233,1.654,0.37,3.847,0.597,4.242c0.547,0.953,1.124,0.666,1.153,0.868
		c0.123,0.414-0.221-3.251-0.796-5.656c-0.226-0.941,0.009-4.617-0.363-5.511c-0.602-1.447-1.719-2.879-2.73-4.768
		c-1.353-2.528-2.271-3.887-3.389-6.528c-0.634-1.493-0.862-1.732-1.377-3.926c-0.116-0.496-0.619-0.596-1.124-0.666
		c-0.635-0.091-0.475,0.9-0.608,1.526c-0.218,1.023-0.023,1.637-0.034,2.684C83.561,66.042,83.347,73.284,83.372,70.458
		L83.372,70.458z"/>
	<polygon stroke="#000000" stroke-width="0.1019" stroke-miterlimit="3.8637" points="82.991,73.603 83.738,74.527 83.707,75.768 
		82.553,76.341 78.632,74.833 75.835,73.99 73.471,73.292 74.616,77.044 76.741,81.896 79.039,86.518 83.16,88 87.109,89.71 
		87.28,90.921 77.709,87.322 74.752,80.939 71.707,75.393 70.444,72.274 71.082,70.949 72.38,71.385 75.551,71.969 80.222,72.961 
		82.991,73.603 	"/>
	<path stroke="#000000" stroke-width="0.1019" stroke-miterlimit="3.8637" d="M75.456,75.69l1.493,3.294
		c0.548,0.1,0.907,0.03,1.414-0.2c0.669-0.301,1.133-0.685,1.244-1.41c0.06-0.393,0.016-0.645-0.143-1.011l-2.594-0.87L75.456,75.69
		L75.456,75.69z"/>
	<path fill="#FFFFFF" stroke="#000000" stroke-width="0.1019" stroke-miterlimit="3.8637" d="M74.924,68.967
		c-0.189,0.219,2.437-0.618,3.465-1.724c0.662-0.709,0.844-1.29,1.131-2.217c1.627-5.276-5.45-14.584-11.72-23.281
		c-4.322-5.997-7.478-8.839-12.691-14.08c-2.796-2.81-4.421-4.351-7.371-7c-3.394-3.049-5.514-4.787-8.983-7.492
		c-0.957-0.746-2.126-1.655-2.999-0.816c-0.563,0.542,0.451,1.617-0.234,1.99c-0.767,0.417-3.313-2.141-4.095-1.279
		c-1.07,1.181,0.656,2.843,1.29,3.322c0.23,0.172-1.549-0.283-2.537-0.468c-0.741-0.139-1.148-0.35-1.903-0.351
		c-1.441-0.005-1.473,1.852-0.468,2.537c2.507,1.708,0.85,0.851,2.075,1.563c3.14,1.825,3.803,2.145,6.716,2.352
		c0.354,0.027,0.698-0.165,0.752-0.517c0.322-2.104-2.677-2.92-2.531-3.353c0.338-1.005,1.684,0.677,2.739,0.439
		c0.396-0.089,0.901-0.104,0.982-0.344c0.725-2.162-2.151-2.839-1.263-3.119c1.184-0.371,10.166,7.843,13.417,11.919
		c0.796,0.996-1.932,0.568-3.204,0.656c-0.955,0.064-1.752-0.517-2.452,0.138c-0.813,0.76,0.373,1.715,0.397,2.828
		c0.009,0.397,0.311,0.649,0.143,1.01c-0.311,0.666-1.145-0.091-1.875-0.148c-0.719-0.059-1.368-0.582-1.847,0.054
		c-0.521,0.69,1.263,3.119,1.521,3.493c0.972,1.412-4.104,0.317-3.842,1.982c0.151,0.959,1.344,0.917,1.699,1.821
		c0.204,0.523,0.575,0.851,0.399,1.386c-0.205,0.623-2.396,0.268-1.559,0.631c3.949,1.712,3.286,1.393,5.277,0.908
		c0.489-0.12,0.244-0.767,0.233-1.27c-0.021-1.037-2.635-1.522-1.726-2.024c0.749-0.414,1.276,0.499,2.133,0.524
		c0.958,0.03,1.938,0.3,2.396-0.542c0.38-0.698-0.034-1.264-0.284-2.021c-0.256-0.777-1.353-0.861-1.266-1.676
		c0.138-1.287,2.71,0.958,3.317,0.152c0.384-0.509-1.318-2.681-1.06-3.147c0.492-0.894,2.134,1.296,3.172,0.584
		c0.993-0.68-0.984-3.811-0.021-3.087c3.686,2.778,4.181,3.704,6.649,6.276c1.301,1.354,2.104,2.054,3.368,3.442
		c2.201,2.412,3.562,3.673,5.612,6.216c1.698,2.105,2.55,3.378,4.083,5.606c1.292,1.877,2.118,2.888,3.164,4.911
		c1.632,3.162,3.189,5.836,2.866,8.661C77.747,66.551,76.341,67.326,74.924,68.967L74.924,68.967z"/>
	<path fill="#FFFFFF" stroke="#000000" stroke-width="0.1019" stroke-miterlimit="3.8637" d="M27.154,26.647
		c-0.956,0.042-1.786-0.197-2.396,0.542c-0.711,0.861-0.396,1.91,0.195,2.856c0.478,0.764,1.04,0.984,1.843,1.39
		c0.991,0.497,1.668,0.519,2.769,0.641c1.197,0.134,2.009,0.514,3.087-0.021c0.558-0.275,0.922-0.577,1.07-1.181
		c0.175-0.712-0.269-1.14-0.659-1.761c-0.57-0.906-1.304-1.084-2.275-1.535C29.461,26.963,28.616,26.582,27.154,26.647
		L27.154,26.647z"/>
	<path fill="#FFFFFF" stroke="#000000" stroke-width="0.1019" stroke-miterlimit="3.8637" d="M29.159,20.391
		c-0.739-0.296-3.722-0.097-4.186,0.999c-0.313,0.736,0.098,1.293,0.486,1.991c0.656,1.181,1.586,1.427,2.765,2.085
		c1.242,0.694,2.049,0.974,3.46,1.162c1.115,0.148,1.826,0.389,2.885,0.007c0.64-0.23,1.217-0.23,1.53-0.833
		c0.465-0.893-0.534-1.514-1.149-2.311c-0.963-1.251-1.967-1.535-3.398-2.2C30.648,20.871,30.687,21,29.159,20.391L29.159,20.391z"
		/>
	<path fill="#FFFFFF" stroke="#000000" stroke-width="0.1019" stroke-miterlimit="3.8637" d="M26.592,32.905
		c-0.828,0.217-1.45,0.368-1.906,1.093c-0.647,1.03-0.985,2.203-0.18,3.115c0.733,0.829,1.653,0.404,2.769,0.642
		c2.335,0.496,4.268,1.049,4.817,0.56c0.463-0.414,0.914-0.58,1.069-1.181c0.184-0.71-0.276-1.136-0.66-1.762
		c-0.56-0.912-1.306-1.08-2.275-1.534C28.901,33.216,28.009,32.536,26.592,32.905L26.592,32.905z"/>
	<path fill="#FFFFFF" stroke="#000000" stroke-width="0.1019" stroke-miterlimit="3.8637" d="M41.648,21.315l2.252-0.11
		c0,0,0.468,1.566,0.712,2.581c0.111,0.464,0.458,0.782,0.232,1.2c-0.276,0.51-0.795,0.471-1.358,0.604
		c-0.934,0.218-2.452,0.139-2.452,0.139s1.49,1.314,1.683,2.462c0.079,0.464,0.287,1.036,0.068,1.206
		c-1.301,1.006-4.472,0.422-4.472,0.422s1.229,1.237,1.552,2.253c0.266,0.834,0.304,1.349,0.313,2.224
		c-0.581,0.304-0.926,0.461-1.56,0.63c-0.845,0.228-1.347,0.284-2.222,0.313c0.639,0.577,1.03,0.906,1.467,1.648
		c0.501,0.848,0.862,1.358,0.947,2.339c-0.451,0.508-1.259,0.932-1.53,0.832c-1.629-0.595-2.618-0.696-3.459-1.161
		c0,0,1.649-0.59,1.849-1.495c0.195-0.887-0.69-1.26-0.919-2.138c-0.197-0.771-0.582-1.283-0.283-2.021
		c0.149-0.369,0.544-0.306,0.879-0.521c0.535-0.342,1.403-0.829,1.403-0.829l-0.543-2.396c-0.175-0.775-0.919-1.542-0.284-2.021
		c0.449-0.338,1.169,0.042,1.443,0.004c0.397,0,0.636-0.004,1.009-0.143c0.523-0.192-0.079-0.783-0.197-1.413
		c-0.164-0.864-0.799-1.705-0.11-2.25c0.373-0.297,0.743-0.271,1.21-0.172c2.337,0.496,2.425-0.34,2.425-0.34L41.648,21.315
		L41.648,21.315z"/>
	<path fill="#FFFFFF" stroke="#000000" stroke-width="0.1019" stroke-miterlimit="3.8637" d="M66.761,54.87
		c0.062-0.749,0.255-1.225,0.783-1.758c0.693-0.698,1.354-0.95,2.34-0.947c0.754,0.003,1.351-0.164,1.902,0.351
		c0.497,0.464,0.781,0.854,0.834,1.531c0.059,0.781-0.169,1.249-0.553,1.932c-0.491,0.869-1.219,1.077-2.182,1.336l-1.714-1.2
		L66.761,54.87L66.761,54.87z"/>
	<path fill="#FFFFFF" stroke="#000000" stroke-width="0.1019" stroke-miterlimit="3.8637" d="M54.057,46.559l2.275,1.535
		c0.372-0.897,0.547-1.443,1.131-2.219c0.929-1.235,1.675-1.763,2.92-2.677c0.66-0.485,0.964-0.859,1.676-1.266l-3.081-2.863
		c0.112,1.077-0.048,1.73-0.439,2.739c-0.427,1.104-0.921,1.622-1.707,2.506C55.906,45.357,55.198,45.763,54.057,46.559
		L54.057,46.559z"/>
	<path fill="#F5822B" d="M48.726,43.806l4.235,2.288l0.263-1.065c0.312-0.971,0.745-1.415,1.332-2.247
		c0.65-0.926,1.423-1.14,1.966-2.13c0.448-0.817,0.543-1.406,0.496-2.337c-0.037-0.731-0.201-1.188-0.66-1.761
		c-0.519-0.648-1.274-0.357-2.104-0.322c-0.983,0.041-1.463,0.498-2.339,0.945c-0.964,0.493-1.353,1.059-1.996,1.93
		c-0.696,0.944-0.759,1.685-1.044,2.824C48.695,42.642,48.806,43.077,48.726,43.806L48.726,43.806z"/>
	<path fill-rule="evenodd" clip-rule="evenodd" fill="#F5822B" d="M58.579,49.425l2.708,1.681l2.738,1.882l0.289-0.865
		c0.417-0.459,0.6-0.776,1.07-1.181c0.405-0.348,0.633-0.575,1.128-0.775c0.448-0.183,0.78-0.122,1.239,0.032l-0.17-1.213
		l-0.89-1.935c-0.379-0.824-0.887-1.162-1.67-1.62c-0.801-0.468-1.264-0.898-2.19-0.928c-0.831-0.027-1.226,0.459-1.935,0.889
		c-0.642,0.39-1.083,0.598-1.475,1.238c-0.371,0.606-0.395,1.043-0.581,1.729C58.729,48.773,58.657,49.004,58.579,49.425
		L58.579,49.425z"/>
	<path fill="#FFFFFF" stroke="#000000" stroke-width="0.1019" stroke-miterlimit="3.8637" d="M20.37,54.585
		c-0.035-1.543-1.638-2.86-1.666-3.063c-0.035-0.248,0.361-0.358,0.576-0.287c4.529,0.704,10.356,1.121,10.263,4.122
		c-0.013,0.428-0.029,0.706-0.261,1.066c-0.378,0.583-0.84,0.782-1.517,0.935c-3.696,0.827-9.464,0.092-9.535-0.413
		C18.15,56.373,20.41,56.332,20.37,54.585L20.37,54.585z"/>
	<path fill="#FFFFFF" stroke="#000000" stroke-width="0.1019" stroke-miterlimit="3.8637" d="M16.583,58.414l5.423,0.475
		c1.902,0.351,5.755-0.088,5.764,2.898c0.006,2.164-2.989,2.351-4.203,2.341c-5.569-0.041-5.627,0.275-6.91-0.06
		c-0.296-0.077,2.412-1.161,2.313-2.591C18.85,59.72,16.869,58.992,16.583,58.414L16.583,58.414z"/>
	<path fill="#FFFFFF" stroke="#000000" stroke-width="0.1019" stroke-miterlimit="3.8637" d="M15.961,65.71
		c0,0,4.848-0.68,7.56-0.442c2.263,0.195,4.461,0.71,4.741,2.218c0.428,2.31-3.772,3.208-5.664,3.679
		c-2.048,0.082-5.18,0.521-5.18,0.521s2.024-1.726,1.393-3.284C18.556,66.583,15.961,65.71,15.961,65.71L15.961,65.71z"/>
	<path fill="#FFFFFF" stroke="#000000" stroke-width="0.1019" stroke-miterlimit="3.8637" d="M19.146,73.71
		c0,0,5.631-2.439,10.012-1.757c4.041,0.607,5.135,1.062,5.42,3.091c0.341,2.425-3.963,4.78-6.574,5.25
		c-2.483,0.658-5.01,1.013-5.01,1.013s1.678-1.987,0.905-4.557C23.586,74.529,19.146,73.71,19.146,73.71L19.146,73.71z"/>
	<path fill="#FFFFFF" stroke="#000000" stroke-width="0.1019" stroke-miterlimit="3.8637" d="M26.771,82.527
		c0.158-0.331,2.321-1.318,5.023-1.633c1.635-0.189,5.716-1.641,6.75,0.392c1.564,3.077-7.201,7.397-7.864,7.078
		c-0.519-0.25,1.219-1.461,0.097-3.722C29.628,82.332,26.492,83.109,26.771,82.527L26.771,82.527z"/>
	
		<path fill-rule="evenodd" clip-rule="evenodd" fill="#FFFFFF" stroke="#000000" stroke-width="0.1019" stroke-miterlimit="3.8637" d="
		M26.879,46.668c0,0,0.591,1.392,0.313,2.222c-0.436,1.297-1.562,2.073-1.562,2.073s3.94,1.44,6.56,1.963
		c2.118,0.423,4.012,0.612,4.731-0.769c0.405-0.777-0.935-2.076-2.156-2.889C33.473,48.408,26.879,46.668,26.879,46.668
		L26.879,46.668z"/>
	<path fill="#FFFFFF" stroke="#000000" stroke-width="0.1019" stroke-miterlimit="3.8637" d="M39.923,51.531
		c4.066,1.078,6.127,1.818,9.153,3.556c1.082,0.623,1.277,2.499,0.945,3.062c-0.376,0.632-1.864,0.032-2.597-0.151
		c-3.95-0.989-5.679-2.293-8.604-3.323c-0.545-0.193-1.172-1.381-0.832-2.253C38.289,51.646,39.303,51.367,39.923,51.531
		L39.923,51.531z"/>
	<path fill="#FFFFFF" stroke="#000000" stroke-width="0.1019" stroke-miterlimit="3.8637" d="M40.862,57.476
		c-0.749-0.926-3.269-1.634-5.535-2.004c-1.325-0.217-2.625-0.352-3.432-0.239c-0.865,0.122-1.398,1.402-0.843,2.075
		c0.993,1.2,2.471,1.287,4.165,1.785c1.873,0.548,4.423,0.911,4.947,0.746C40.757,59.654,41.954,58.828,40.862,57.476L40.862,57.476
		z"/>
	<path fill="#FFFFFF" stroke="#000000" stroke-width="0.1019" stroke-miterlimit="3.8637" d="M38.816,61.35
		c-0.865-0.816-3.186-1.276-5.331-1.396c-1.396-0.077-2.793-0.031-3.577,0.194c-0.84,0.24-1.473,1.812-0.829,2.4
		c1.151,1.051,2.637,1.468,4.498,1.719c1.894,0.256,4.442-0.143,4.876-0.479C39.102,63.287,39.784,62.263,38.816,61.35L38.816,61.35
		z"/>
	<path fill="#FFFFFF" stroke="#000000" stroke-width="0.1019" stroke-miterlimit="3.8637" d="M38.735,66.531
		c-0.864-0.817-2.746-1.033-4.585-1.108c-1.396-0.057-2.792-0.031-3.577,0.193c-0.839,0.24-1.473,1.812-0.828,2.401
		c1.15,1.05,2.625,1.583,4.497,1.719c1.826,0.133,4.184-0.518,4.618-0.855C39.509,68.378,39.704,67.443,38.735,66.531L38.735,66.531
		z"/>
	<path fill="#FFFFFF" stroke="#000000" stroke-width="0.1019" stroke-miterlimit="3.8637" d="M40.747,70.574
		c-1.184-0.349-3.795,0.12-4.518,0.84c-0.52,0.518-0.969,1.166-0.798,2.379c0.069,0.501,0.774,1.293,1.25,1.574
		c1.599,0.948,3.794,0.601,4.964-0.594c0.202-0.205-1.133-0.803-1.353-1.561C39.894,71.826,41.184,70.703,40.747,70.574
		L40.747,70.574z"/>
	<path fill="#FFFFFF" stroke="#000000" stroke-width="0.1019" stroke-miterlimit="3.8637" d="M42.794,77.804
		c-1.223-0.159-3.924-0.066-3.282,3.036c0.104,0.496,0.616,1.265,1.131,1.47c1.726,0.686,2.668,0.357,3.638-1.006
		c0.167-0.234-1.245-0.615-1.58-1.33C42.088,78.668,43.246,77.864,42.794,77.804L42.794,77.804z"/>
	
		<path fill-rule="evenodd" clip-rule="evenodd" fill="#FFFFFF" stroke="#000000" stroke-width="0.1019" stroke-miterlimit="3.8637" d="
		M43.082,84.253c0,0,1.021-1.071,1.82-0.977c1.99,0.236,1.605,0.52,2.146,1.348c0.63,0.967,0.86,2.453,0.513,2.914l-1.328,0.804
		c-0.97,0.681-2.095-0.185-2.854-1.269l0,0C42.618,85.99,42.734,84.714,43.082,84.253L43.082,84.253z"/>
	
		<path fill-rule="evenodd" clip-rule="evenodd" fill="#FFFFFF" stroke="#000000" stroke-width="0.1019" stroke-miterlimit="3.8637" d="
		M58.689,71.453c0,0,2.585-1.394,2.819-3.383c0.261-2.191-1.02-4.076-3.133-4.71c-2.326-0.696-5.024,0.38-5.589,2.742
		c-0.402,1.679,1.217,4.259,1.217,4.259l-1.562,1.351c0.072,0.517,2.436,1.204,2.436,1.204s-1.943,1.752-1.723,3.125
		c0.273,1.723,3.991,2.016,3.991,2.016s-1.592,1.871-1.479,2.679c0.21,1.491,2.434,0.793,3.852,0.284
		c1.591-0.573,4.045-2.102,2.835-3.282c-0.667-0.65-2.336-0.496-2.336-0.496s1.195-3.896,1.16-2.737
		C61.131,76.037,58.689,71.453,58.689,71.453L58.689,71.453z"/>
	<path fill="#FFFFFF" stroke="#000000" stroke-width="0.1019" stroke-miterlimit="3.8637" d="M68.49,68.634
		c0.376-0.258-0.35-4.689-2.441-4.909c-1.366-0.145-1.738,0.284-2.038,1.625c-0.189,0.85,2.617,3.959,3.931,3.773
		C68.217,69.085,68.261,68.793,68.49,68.634L68.49,68.634z"/>
	<path fill="#FFFFFF" stroke="#000000" stroke-width="0.1019" stroke-miterlimit="3.8637" d="M66.58,71.169
		c0.245-0.896-0.576-1.719-1.495-1.851c-0.96-0.136-2.117,0.171-2.211,1.135c-0.077,0.815,0.738,1.261,1.541,1.432
		C65.286,72.069,66.347,72.027,66.58,71.169L66.58,71.169z"/>
	<path fill="#FFFFFF" stroke="#000000" stroke-width="0.1019" stroke-miterlimit="3.8637" d="M66.708,72.798
		c0.01,1.545-0.548,2.922-1.64,3.732c-1.025,0.762-2.984-0.713-2.316-2.558c0.196-0.543,1.283,0.174,1.847-0.054
		C64.989,73.761,66.705,72.595,66.708,72.798L66.708,72.798z"/>
	<path fill="#FFFFFF" stroke="#000000" stroke-width="0.1019" stroke-miterlimit="3.8637" d="M45.98,52.123
		c-3.529-2.389-1.303-4.143,1.751-2.925c2.755,1.1,6.41,3.02,6.701,3.695c0.291,0.68-1.84,1.471-4.272,1.114
		C49.179,53.63,47.422,53.099,45.98,52.123L45.98,52.123z"/>
	<path fill="#F5822B" d="M25.393,47.083c-1.281-1.209-5.904-2.964-10.162-3.415c-6.691-0.708-12.588,4.24-6.113,4.876
		c3.95,0.388,9.289,0.858,13.283,1.431C24.988,50.346,27.293,48.876,25.393,47.083L25.393,47.083z"/>
	<path fill="#F5822B" d="M18.066,52.849c-1.322-1.163-2.189-1.649-6.832-2.439c-8.459-1.44-10.716,5.83-5.395,6.318
		c3.951,0.363,5.236-0.117,9.231-0.266C17.685,56.366,20.028,54.575,18.066,52.849L18.066,52.849z"/>
	<path fill="#F5822B" d="M16.304,60.101c-1.143-1.204-0.949-1.293-5.62-1.89c-9.229-1.176-10.772,5.427-6.001,6.405
		c3.888,0.797,5.032,0.632,8.915-0.325C16.173,63.657,17.514,61.373,16.304,60.101L16.304,60.101z"/>
	<path fill="#F5822B" d="M14.126,66.586c-2.45-0.583-4.38-0.272-6.014-0.288c-8.251-0.078-6.045,6.822-2.139,7.51
		c3.438,0.604,4.903,0.076,8.53-1.609C16.727,71.165,17.377,67.36,14.126,66.586L14.126,66.586z"/>
	<path fill="#F5822B" d="M19.952,75.424c-2.508-0.721-4.44-0.624-6.117-0.66c-8.468-0.177-6.184,7.735-2.167,8.537
		c3.532,0.704,4.853,0.625,8.554-1.193C22.493,80.994,22.904,76.273,19.952,75.424L19.952,75.424z"/>
	<path fill="#F5822B" d="M27.479,84.266c-2.025-0.456-3.561-0.298-4.897-0.253c-6.747,0.228-4.616,6.346-1.387,6.801
		c2.841,0.402,3.89,0.283,6.765-1.307C29.723,88.532,29.862,84.805,27.479,84.266L27.479,84.266z"/>
	<path fill="#F5822B" d="M40.728,85.821c-1.023-0.844-2.672,0.591-4.245,1.316c-2.348,1.083-5.628,2.45-5.187,4.13
		c0.442,1.684,4.121,1.48,6.286,0.764c1.684-0.555,3.5-0.635,4.347-1.33C43.127,89.707,42.009,86.876,40.728,85.821L40.728,85.821z"
		/>
	<path fill="#F5822B" d="M53.443,62.712c-2.492-1.606-3.733-2.501-6.903-2.943c-1.47-0.205-4.733,1.351-5.749,3.795
		c-1.001,2.406,1.144,5.195,2.08,5.269c2.669,0.212,5.697,0.23,7.543,0.177c0.55-0.016-1.335-2.181-0.654-3.925
		C50.606,62.919,51.735,62.762,53.443,62.712L53.443,62.712z"/>
	<path fill="#F5822B" d="M51.429,73.296c-3.462,0.281-5.483,1.286-7.331,1.34c-1.915,0.054-1.989-3.487-0.74-3.811
		c2.584-0.673,5.482-0.564,7.717-0.054c0.329,0.075-1.242,0.731-0.868,1.151C50.206,71.923,51.372,72.892,51.429,73.296
		L51.429,73.296z"/>
	<path fill="#F5822B" d="M53.178,78.407c-2.673,2.23-4.888,2.158-6.727,1.975c-2.09-0.208-1.438-3.272-0.352-3.968
		c2.269-1.451,3.059-1.518,5.35-1.444c0.339,0.012-0.843,1.422-0.591,2.321C51.13,78.257,52.717,78.06,53.178,78.407L53.178,78.407z
		"/>
	<path fill="#F5822B" d="M56.035,83.108c-2.728,2.079-3.839,2.247-5.686,2.288c-1.746,0.039-2.163-2.429-0.915-3.579
		c1.185-1.094,1.893-1.192,4.274-1.836c0.326-0.089-0.61,1.566-0.126,2.344C54.113,83.177,55.53,82.828,56.035,83.108L56.035,83.108
		z"/>
	<path fill-rule="evenodd" clip-rule="evenodd" fill="#F5822B" d="M63.605,79.311c0,0-4.348,3.311-7.311,5.147
		c-3.66,2.271-9.648,5.373-9.648,5.373s6.943-1.81,10.612-4.375C60.082,83.482,63.605,79.311,63.605,79.311L63.605,79.311z"/>
	<path fill="#F5822B" d="M64.064,61.531c0.195-1.034-0.148-1.694-0.648-2.621c-0.672-1.242-1.544-1.601-2.688-2.429
		c-1.045-0.755-1.596-1.404-2.86-1.655c-0.979-0.193-1.618-0.437-2.56-0.099c-1.077,0.386-1.693,1.083-1.942,2.201
		c-0.264,1.18,0.383,1.891,0.988,2.938c0.704,1.221,1.559,1.597,2.766,2.323c0.974,0.587,2.691,1.119,2.691,1.119
		s1.616,0.457,2.55,0.108C63.29,63.073,63.882,62.506,64.064,61.531L64.064,61.531z"/>
	<path fill="#F5822B" d="M21.073,36.874c-0.056-1.125-10.31,0.104-11.426,0.78c-1.33,0.806-1.204,3.156,0.643,2.382
		c2.931-1.228,7.608-2.304,10.407-2.903C20.973,37.073,21.087,37.155,21.073,36.874L21.073,36.874z"/>
	<path fill="#F5822B" d="M11.916,3.242c-0.464,0.965,2.484,1.621,3.544,1.77c4.413,0.616,5.668,1.088,9.17,2.213
		c2.406,0.774,3.716,1.352,6.082,2.236c1.6,0.599,3.372,1.998,4.123,1.48c0.439-0.302-0.318-0.781-0.776-1.126
		c-2.766-2.083-3.604-2.136-6.022-3.274c-2.26-1.063-3.531-1.705-5.909-2.467c-1.731-0.554-2.69-1.023-4.498-1.223
		C15.409,2.608,12.872,1.254,11.916,3.242L11.916,3.242z"/>
	<path fill="#F5822B" d="M12.486,5.839c-2.071-0.091-3.318-0.25-5.309,0.335C6.381,6.408,5.68,6.356,5.243,7.063
		c-0.769,1.242-0.181,3.115,2.272,2.977c4.645-0.262,6.433,0.334,9.403,0.945c3.111,0.644,4.859,1.907,8.131,2.155
		c1.447,0.109,3.299,0.266,3.722,0.095c0.778-0.314-1.653-2.741-3.166-3.47c-1.988-0.957-2.374-1.284-3.978-1.913
		c-1.392-0.546-2.216-0.752-3.662-1.134C15.875,6.166,14.649,5.935,12.486,5.839L12.486,5.839z"/>
	<path fill="#F5822B" d="M5.06,11.621c3.059-0.223,4.272-0.425,6.982-0.156c2.529,0.25,3.955,0.584,6.372,1.371
		c1.728,0.563,2.91,0.553,4.354,1.654c1.088,0.832,2.39,2.343,2.418,2.545c0.126,0.898-0.945,0.956-1.502,1.035
		c-1.213,0.17-0.881,0.002-1.443-0.004c-2.528-0.025-3.938-0.354-6.462-0.534c-1.944-0.14-3.208-0.174-4.989-0.329
		c-2.712-0.237-5.865-0.673-6.114-0.995c-1.008-1.302-1.533-1.056-1.524-2.052c0.007-0.82,0.155-1.401,0.755-1.961
		C4.272,11.851,4.558,11.658,5.06,11.621L5.06,11.621z"/>
	<path fill="#F5822B" d="M3.081,19.52c-0.158,0.817,0.358,1.298,0.889,1.936c1.097,1.318,2.916,0.842,4.269,1.05
		c2.104,0.322,2.921,0.218,4.788,0.357c1.867,0.139,2.917,0.297,4.789,0.357c2.013,0.064,3.806,0.701,5.163,0.1
		c0.658-0.293,0.07-1.674-0.486-1.993c-2.016-1.159-1.843-1.39-2.91-1.65c-1.98-0.486-2.449-0.4-3.807-0.701
		c-1.701-0.381-4.825-0.679-7.932-0.741c-1.125-0.022-1.816-0.36-2.885-0.007C4.114,18.505,3.249,18.647,3.081,19.52L3.081,19.52z"
		/>
	<path fill="#F5822B" d="M4.681,26.506c0.065,0.887,0.405,1.826,1.293,1.879c1.039,0.06,2.442,0.652,4.038,0.875
		c3.89,0.54,8.251,0.077,10.069-0.179c0.404-0.057,2.569-0.772,2.715-1.205c0.282-0.843-0.863-1.671-1.295-1.879
		c-1.325-0.637-1.047-0.38-1.729-0.58c-2.341-0.688-3.725-0.865-6.143-1.197c-2.735-0.378-4.587-0.387-7.067-0.45
		C5.268,23.737,4.586,25.214,4.681,26.506L4.681,26.506z"/>
	<path fill="#F5822B" d="M6.397,32.857c-0.007,1.139,0.748,2.407,1.582,2.456c0.974,0.059-0.506-0.003,2.509,0.266
		c3.671,0.327,6.112,0.171,7.818-0.067c0.379-0.054,4.021-0.793,4.157-1.201c0.266-0.797,0.23-1.058-0.025-1.646
		c-0.407-0.935-1.283-1.21-2.247-1.333c-2.307-0.294-4.703-0.668-7.73-0.768c-1.519-0.049-1.567,0.197-3.895,0.135
		C7.352,30.667,6.403,31.664,6.397,32.857L6.397,32.857z"/>
	<path fill="#F5822B" d="M70.878,58.513c-0.059,0.195,2.453,1.791,3.267,3.456c0.841,1.716,0.6,4.923,0.783,4.834
		c2.123-1.018,2.563-3.759,0.996-6.834C74.558,57.284,71.373,56.9,70.878,58.513L70.878,58.513z"/>
	<path fill="#FFFFFF" stroke="#000000" stroke-width="0.1019" stroke-miterlimit="3.8637" d="M24.635,43.892
		c3.145-0.872,5.235-1.477,8.485-1.191c2.736,0.24,4.23,0.837,6.834,1.719c3.179,1.077,4.88,1.949,7.896,3.424
		c3.06,1.495,4.639,2.62,7.606,4.287c2.222,1.248,3.555,1.84,5.62,3.332c2.286,1.652,3.799,2.486,5.413,4.801
		c0.835,1.2,1.368,1.871,1.896,3.235c0.439,1.135,0.518,1.843,1.031,2.945c0.438,0.938,0.331,2.114,1.352,2.282
		c0.628,0.104,1.091,0.134,1.615-0.227c0.605-0.414,0.982-0.852,1.014-1.585c0.121-2.797-1.481-5.388-3.791-7.913
		c-1.101-1.204-1.963-1.634-3.253-2.633c-2.765-2.141-4.527-3.068-7.491-4.922c-3.129-1.957-4.945-3-8.27-4.607
		c-3.723-1.799-5.891-2.715-9.828-3.976c-6.073-1.943-2.989-0.626-15.887-3.652l-7.133,1.542
		C19.956,42.712,24.635,43.892,24.635,43.892L24.635,43.892z"/>
	<path fill="#F5822B" d="M42.919,47.196c-1.28-1.209-5.603-3.95-10.822-5.175c-3.957-0.929-6.286-1.486-10.555-1.814
		c-6.207-0.477-14.068,1.77-5.719,2.554c3.952,0.372,7.825,1.056,12.689,2.339c4.697,1.238,8.389,3.251,11.79,4.009
		C42.855,49.677,44.818,48.989,42.919,47.196L42.919,47.196z"/>
	<path fill-rule="evenodd" clip-rule="evenodd" d="M89.811,126.771l5.67-27.895c0.749-3.607,1.283-4.207,8.452-4.207
		c8.987,0,14.017,5.049,14.017,13.467c0,6.129-2.568,10.816-6.313,14.186c-3.529,3.008-9.094,4.449-14.872,4.449H89.811
		L89.811,126.771z M93.233,130.976c10.592,0,19.9,3.365,19.9,17.074c0,10.695-5.778,21.398-20.113,21.398
		c-10.592,0-11.021-3.008-10.058-7.695l6.099-30.777H93.233L93.233,130.976z M61.136,173.654h32.526
		c25.891,0,31.027-14.908,31.027-24.885c0-12.625-8.346-18.154-16.156-19.838l0.107-0.357c14.229-1.928,20.221-10.82,20.221-19.957
		c0-6.252-2.247-11.182-6.74-14.189c-4.708-3.246-11.661-4.084-19.366-3.963H76.972l-0.642,3.482l6.312,0.723
		c2.461,0.238,3.103,1.686,2.247,5.773l-12.625,63.234c-0.749,3.969-1.927,5.41-4.493,5.771l-5.993,0.717L61.136,173.654
		L61.136,173.654z"/>
	<path fill-rule="evenodd" clip-rule="evenodd" d="M130.251,116.667l-0.642,2.889l6.099,0.6c2.889,0.244,3.21,1.322,2.247,5.529
		l-8.987,37.629c-1.605,6.852-0.215,11.781,5.563,11.781c7.704,0,13.695-8.174,17.332-17.311l-2.566-1.684
		c-1.927,4.211-6.635,12.742-9.629,12.742c-2.141,0-2.034-2.764-1.07-6.609l11.662-48.33l-0.534-0.6L130.251,116.667
		L130.251,116.667z M149.188,87.697c-4.601,0-6.954,4.09-6.954,7.934c0,4.451,2.675,6.734,5.884,6.734
		c4.173,0,6.849-3.246,6.849-8.057C154.967,89.621,152.185,87.697,149.188,87.697L149.188,87.697z"/>
	<path fill-rule="evenodd" clip-rule="evenodd" d="M183.852,117.509c6.526,0,8.88,5.174,8.88,12.625
		c0,8.537-5.563,40.756-20.221,40.756c-6.205,0-9.63-4.207-9.63-12.742C162.881,145.162,169.729,117.509,183.852,117.509
		L183.852,117.509z M183.959,113.304c-25.357,0-31.456,29.691-31.456,40.031c0,12.867,6.206,21.76,19.687,21.76
		c11.662,0,19.151-6.488,24.18-15.387c4.922-8.656,6.74-18.873,6.74-25.367C203.109,117.753,192.625,113.304,183.959,113.304
		L183.959,113.304z"/>
	<path d="M253.493,173.654l5.461-21.16h-3.211c-5.455,14.789-10.271,16.955-22.359,16.955c-5.246,0-10.594-0.361-11.985-1.566
		c-1.605-1.441-1.711-3.244-0.535-8.893l11.876-58.547c0.854-3.969,1.928-5.773,4.602-6.016l6.418-0.48l0.752-3.482h-29.853
		l-0.749,3.482l6.313,0.605c2.459,0.236,3.209,1.922,2.354,5.891l-12.838,63.234c-0.856,4.205-1.927,5.527-4.495,5.771l-5.884,0.717
		l-0.643,3.488H253.493L253.493,173.654z"/>
	<path fill-rule="evenodd" clip-rule="evenodd" d="M303.04,120.156c-1.928,8.898-5.777,20.799-11.447,30.416
		c-5.994,10.221-12.518,18.271-17.656,18.271c-3.527,0-4.703-3.725-4.703-8.412c0-13.223,10.48-42.922,27.277-42.922
		C299.083,117.509,301.435,118.472,303.04,120.156L303.04,120.156z M304.646,114.265l-0.537,1.566
		c-1.82-1.447-4.918-2.527-7.807-2.527c-25.469,0-37.664,31.619-37.664,47.488c0,7.215,2.996,14.303,10.273,14.303
		c11.447,0,21.396-14.906,27.6-27.17h0.215l-3.635,13.711c-2.25,8.529-1.074,13.459,4.703,13.459
		c8.135,0,14.127-8.174,17.764-17.311l-2.568-1.684c-1.928,4.211-6.637,12.742-9.627,12.742c-2.143,0-2.035-2.764-1.074-6.609
		l11.342-47.969H304.646L304.646,114.265z"/>
	<path fill-rule="evenodd" clip-rule="evenodd" d="M357.901,129.535c0,8.656-6.422,41.355-22.15,41.355
		c-5.455,0-8.77-4.33-8.77-10.34c0-5.773,2.246-14.066,5.672-21.037c4.811-9.617,12.838-19.957,19.471-19.957
		C356.081,119.556,357.901,122.683,357.901,129.535L357.901,129.535z M341.636,85.052l-0.531-0.601l-19.154,2.885l-0.639,2.765
		l6.096,0.844c2.674,0.361,3.104,1.199,2.143,5.891l-15.729,76.818h3.85l3.318-6.971c1.922,5.049,7.385,8.412,13.479,8.412
		c12.521,0,21.613-9.373,26.859-19.955c5.348-10.578,7.061-21.279,7.061-26.691c0-8.893-3.533-15.145-11.447-15.145
		c-8.135,0-18.725,8.293-26.967,24.768h-0.209L341.636,85.052L341.636,85.052z"/>
	<path d="M390.94,113.304c-10.912,0-17.334,7.938-17.334,17.672c0,6.254,3.855,11.783,9.418,16.83
		c4.598,4.088,7.385,9.381,7.385,14.066c0,5.654-3.211,9.018-7.707,9.018c-3.957,0-7.914-3.727-9.627-10.098
		c-0.645-2.283-1.605-3.605-3.426-3.605c-3.211,0-5.563,3.244-5.563,6.49c0,5.166,5.885,11.418,16.049,11.418
		c11.557,0,18.51-8.293,18.51-18.152c0-6.609-2.674-11.781-9.842-18.391c-6.424-5.891-7.6-9.859-7.6-13.223
		c0-3.852,2.674-7.82,6.633-7.82c3.533,0,6.314,2.646,8.559,8.301c0.537,1.441,1.391,2.402,2.996,2.402
		c2.143,0,5.139-1.805,5.139-5.529C404.53,118.953,400.466,113.304,390.94,113.304L390.94,113.304z"/>
	<path fill-rule="evenodd" clip-rule="evenodd" d="M414.362,126.787v-0.35l-0.52-0.068c-0.313-0.033-0.379-0.191-0.379-0.486v-2.131
		h0.588c0.537,0,0.869,0.152,1.039,0.52c0.158,0.328,0.209,1.074,0.453,1.77c0.176,0.486,0.52,0.746,1.266,0.746h0.764v-0.26
		c-0.242-0.072-0.469-0.158-0.605-0.293c-0.225-0.266-0.385-0.576-0.469-1.08c-0.141-0.764-0.316-1.402-1.357-1.662v-0.039
		c0.973-0.154,1.686-0.689,1.686-1.646c0-0.938-0.57-1.633-2.256-1.633h-3.121v0.35l0.537,0.068c0.295,0.051,0.346,0.191,0.346,0.52
		v4.771c0,0.295-0.051,0.453-0.346,0.486l-0.537,0.068v0.35H414.362L414.362,126.787z M413.464,121.027
		c0-0.26,0.066-0.367,0.779-0.367c0.656,0,1.369,0.227,1.369,1.283c0,0.955-0.605,1.322-1.494,1.322h-0.654V121.027L413.464,121.027
		z M414.312,129.806c3.488,0,6.314-2.793,6.314-6.264s-2.826-6.264-6.314-6.264s-6.314,2.793-6.314,6.264
		S410.823,129.806,414.312,129.806L414.312,129.806z M414.312,118.058c2.916,0,5.207,2.414,5.207,5.484s-2.291,5.484-5.207,5.484
		c-2.912,0-5.207-2.414-5.207-5.484S411.399,118.058,414.312,118.058L414.312,118.058z"/>
	<path d="M127.262,50.344l-0.243,1.116l2.042,0.23c0.796,0.077,1.039,0.577,0.762,1.847l-3.253,15.765
		c-0.416,2.038-0.797,3.499-1.212,4.769c-0.415,1.229-1.003,1.537-2.042,1.653l-1.072,0.114l-0.174,1.115h8.169l0.172-1.115
		l-1.35-0.114c-1.107-0.116-1.695-0.462-1.593-1.653c0.104-1.27,0.313-2.73,0.729-4.769l3.253-15.765h0.104
		c3.253,7.806,6.438,15.611,9.622,23.416h2.249l3.876-18.956c0.416-2.038,0.796-3.499,1.212-4.769
		c0.415-1.231,1.003-1.538,2.042-1.653l1.073-0.115l0.174-1.116h-8.17l-0.172,1.116l1.35,0.153c1.106,0.154,1.696,0.346,1.592,1.615
		c-0.104,1.27-0.312,2.73-0.727,4.769l-2.839,13.919h-0.138c-2.977-7.189-5.953-14.381-8.86-21.572H127.262L127.262,50.344z"/>
	<path fill-rule="evenodd" clip-rule="evenodd" d="M155.521,50.344l-0.242,1.116l2.076,0.153c0.796,0.077,1.039,0.538,0.763,1.846
		l-4.154,20.303c-0.277,1.308-0.588,1.77-1.419,1.846l-1.938,0.23l-0.208,1.115h18.067l1.765-6.767h-1.039
		c-1.765,4.729-3.322,5.421-7.579,5.421c-1.696,0-3.427-0.115-3.876-0.5c-0.52-0.461-0.554-1.037-0.174-2.845l1.766-8.421h4.534
		c3.046,0,3.148,0.807,3.01,3.307h1.039l1.593-8.036h-1.038c-0.9,2.653-1.281,3.268-4.327,3.268h-4.533l1.973-9.574
		c0.173-0.923,0.38-1.115,0.968-1.115h4.188c4.361,0,4.258,1.614,3.945,5.076h1.039l1.314-6.423H155.521L155.521,50.344z"/>
	<path d="M175.775,50.344l-0.208,1.116l1.523,0.191c0.761,0.078,0.935,0.462,1.004,1.615l1.522,23.687h2.424l9.481-21.187h0.175
		l1.799,21.187h2.423l6.021-13.727c1.939-4.384,3.703-8.269,4.327-9.46c0.969-1.846,1.211-2.076,3.357-2.307l0.173-1.116h-7.752
		l-0.174,1.116l2.25,0.27c0.554,0.077,0.588,0.5,0.311,1.307c-0.553,1.538-1.833,4.691-3.944,9.574l-4.154,9.652h-0.139
		l-1.765-21.227h-2.423l-9.379,21.227h-0.174l-1.143-19.342c-0.069-0.885,0.174-1.191,0.729-1.23l2.248-0.23l0.243-1.116H175.775
		L175.775,50.344z"/>
	<path fill-rule="evenodd" clip-rule="evenodd" d="M221.681,50.344l-0.242,1.116l2.076,0.153c0.797,0.077,1.039,0.538,0.762,1.846
		l-4.154,20.303c-0.275,1.308-0.588,1.77-1.419,1.846l-1.938,0.23l-0.208,1.115h18.07l1.764-6.767h-1.041
		c-1.764,4.729-3.324,5.421-7.58,5.421c-1.695,0-3.426-0.115-3.875-0.5c-0.52-0.461-0.555-1.037-0.174-2.845l1.766-8.421h4.533
		c3.047,0,3.148,0.807,3.014,3.307h1.039l1.59-8.036h-1.035c-0.904,2.653-1.283,3.268-4.33,3.268h-4.533l1.973-9.574
		c0.174-0.923,0.381-1.115,0.971-1.115h4.184c4.365,0,4.258,1.614,3.947,5.076h1.039l1.318-6.423H221.681L221.681,50.344z"/>
	<path d="M243.804,50.344l-0.244,1.116l2.047,0.23c0.791,0.077,1.035,0.577,0.758,1.847l-3.25,15.765
		c-0.42,2.038-0.797,3.499-1.211,4.769c-0.418,1.229-1.006,1.537-2.047,1.653l-1.068,0.114l-0.174,1.115h8.168l0.17-1.115
		l-1.346-0.114c-1.107-0.116-1.695-0.462-1.594-1.653c0.102-1.27,0.311-2.73,0.729-4.769l3.252-15.765h0.102
		c3.256,7.806,6.439,15.611,9.621,23.416h2.25l3.879-18.956c0.412-2.038,0.797-3.499,1.209-4.769
		c0.42-1.231,1.008-1.538,2.041-1.653l1.074-0.115l0.176-1.116h-8.17l-0.174,1.116l1.352,0.153c1.107,0.154,1.695,0.346,1.594,1.615
		c-0.107,1.27-0.311,2.73-0.73,4.769l-2.838,13.919h-0.135c-2.98-7.189-5.953-14.381-8.865-21.572H243.804L243.804,50.344z"/>
	<path d="M290.444,51.691c-2.115-1.269-4.846-1.923-7.756-1.923c-5.293,0-9.137,2.115-11.563,5.537
		c-2.283,3.229-3.285,7.306-3.285,10.69c0,3.845,1.143,6.96,2.941,8.689c2.041,1.962,4.844,2.846,8.066,2.846
		c2.527,0,5.365-0.653,7.338-1.46l1.623-7.769c0.277-1.307,0.486-1.884,1.074-1.961l1.521-0.153l0.209-1.116h-9.102l-0.211,1.116
		l2.602,0.269c0.656,0.076,0.898,0.5,0.588,1.846l-1.283,5.807c-0.244,1.115-0.689,2.076-4.291,2.076
		c-4.189,0-7.271-3.115-7.271-9.921c0-6.152,2.736-15.149,11.008-15.149c5.088,0,5.744,3.268,5.508,6.575h1.033L290.444,51.691
		L290.444,51.691z"/>
	<path fill-rule="evenodd" clip-rule="evenodd" d="M308.36,76.954l1.77-6.767h-1.041c-1.764,4.729-3.324,5.421-7.236,5.421
		c-1.695,0-3.426-0.115-3.873-0.5c-0.52-0.461-0.553-1.037-0.174-2.845l3.844-18.726c0.277-1.27,0.621-1.847,1.486-1.924
		l2.076-0.153l0.242-1.116h-9.656l-0.242,1.116l2.041,0.191c0.797,0.078,1.039,0.616,0.762,1.886l-4.154,20.225
		c-0.277,1.346-0.623,1.77-1.453,1.846l-1.9,0.23l-0.209,1.115H308.36L308.36,76.954z"/>
	<path fill-rule="evenodd" clip-rule="evenodd" d="M334.614,76.954l0.209-1.115l-1.316-0.114c-1.074-0.116-1.211-0.654-1.385-2.23
		l-2.563-23.149h-2.453l-5.816,11.344c-1.764,3.423-4.637,9.151-5.92,11.46c-1.107,1.998-1.695,2.422-2.764,2.537l-1.148,0.153
		l-0.203,1.115h7.785l0.209-1.115l-1.906-0.192c-0.689-0.076-0.758-0.614-0.445-1.422c1.141-2.462,2.283-4.961,3.561-7.537h7.758
		l0.791,7.46c0.107,1.115-0.17,1.423-0.865,1.499l-1.832,0.192l-0.209,1.115H334.614L334.614,76.954z M328.04,65.226h-6.887
		c1.832-3.807,3.738-7.574,5.604-11.305h0.072L328.04,65.226L328.04,65.226z"/>
	<path d="M341.405,50.344l-0.244,1.116l2.041,0.23c0.797,0.077,1.041,0.577,0.764,1.847l-3.252,15.765
		c-0.418,2.038-0.797,3.499-1.215,4.769c-0.412,1.229-1,1.537-2.041,1.653l-1.074,0.114l-0.17,1.115h8.17l0.17-1.115l-1.352-0.114
		c-1.102-0.116-1.695-0.462-1.588-1.653c0.102-1.27,0.311-2.73,0.723-4.769l3.256-15.765h0.104
		c3.256,7.806,6.438,15.611,9.621,23.416h2.25l3.879-18.956c0.412-2.038,0.797-3.499,1.209-4.769
		c0.414-1.231,1.006-1.538,2.041-1.653l1.074-0.115l0.176-1.116h-8.17l-0.176,1.116l1.352,0.153
		c1.109,0.154,1.697,0.346,1.596,1.615c-0.107,1.27-0.318,2.73-0.73,4.769l-2.838,13.919h-0.135
		c-2.98-7.189-5.959-14.381-8.865-21.572H341.405L341.405,50.344z"/>
	<path fill-rule="evenodd" clip-rule="evenodd" d="M378.253,51.691c7.197,0.153,7.824,5.537,7.824,8.613
		c0,3.308-0.695,6.459-2.25,9.306c-1.973,3.614-4.951,5.998-10.695,5.998c-1.906,0-3.184-0.269-2.838-1.962l4.189-20.533
		C374.759,51.807,375.241,51.691,378.253,51.691L378.253,51.691z M363.407,76.954h10.623c6.926,0,10.939-2.769,13.434-6.959
		c1.967-3.308,2.316-6.537,2.316-8.845c0-3.114-1.006-6.191-2.979-8.037c-2.008-1.884-5.123-2.769-8.961-2.769h-9.311l-0.209,1.116
		l2.041,0.191c0.797,0.078,0.971,0.616,0.729,1.886l-4.121,20.225c-0.244,1.27-0.588,1.77-1.42,1.846l-1.939,0.23L363.407,76.954
		L363.407,76.954z"/>
	<path d="M413.757,172.958l0.176-0.943l-1.73-0.131c-0.701-0.066-0.848-0.621-0.645-1.633l3.523-17.137
		c0.203-1.012,0.496-1.531,1.227-1.6l1.615-0.164l0.205-0.943h-8.033l-0.211,0.943l1.736,0.131c0.674,0.068,0.848,0.656,0.645,1.633
		l-3.521,17.137c-0.203,1.045-0.525,1.504-1.232,1.566l-1.611,0.197l-0.176,0.943H413.757L413.757,172.958z"/>
	<path d="M419.835,172.958c0.854-3.324,1.352-5.082,2.113-7.105c1.08-2.799,3.896-7.559,6.275-7.559
		c1.023,0,1.289,1.045,0.967,2.313l-2.521,9.549c-0.469,1.826-0.09,3.193,1.494,3.193c2.199,0,3.844-2.217,4.838-4.691l-0.707-0.459
		c-0.525,1.143-1.814,3.455-2.633,3.455c-0.588,0-0.561-0.746-0.295-1.793l2.283-8.537c0.68-2.572,0.322-4.725-2.08-4.725
		c-2.814,0-5.861,3.453-7.621,7.27h-0.09l1.906-7.107l-0.148-0.162l-5.365,0.914l-0.174,0.781l1.82,0.164
		c0.701,0.063,0.701,0.52,0.436,1.566l-3.076,13.324L419.835,172.958L419.835,172.958z"/>
	<path d="M445.444,167.939c-1,1.498-2.73,3.816-4.691,3.816c-2.143,0-2.584-1.957-2.584-4.27c0-4.238,2.199-9.746,4.902-9.746
		c0.932,0,1.582,0.65,1.758,2.607c0.057,0.588,0.322,0.977,0.848,0.977c0.707,0,1.877-0.746,1.877-1.826
		c0-1.662-1.584-2.898-3.783-2.898c-5.217,0-8.502,6.195-8.502,11.537c0,3.975,2.137,5.213,4.195,5.213
		c2.164,0,4.658-1.039,6.682-4.789L445.444,167.939L445.444,167.939z"/>
	<path d="M451.167,173.349c1.146,0,1.904-0.881,1.904-2.25c0-0.979-0.611-1.82-1.668-1.82c-1.113,0-1.904,0.877-1.904,2.211
		C449.499,172.535,450.114,173.349,451.167,173.349L451.167,173.349z"/>
	<g>
		<path d="M67.026,203.47c-1.021,1.334-2.51,2.76-4.309,2.76c-2.295,0-2.916-2.604-2.916-4.154c0-3.752,2.512-9.178,6.854-9.178
			c1.457,0,2.139,0.867,2.139,1.83c0,2.51-4.496,4.154-6.418,4.588c-0.154,0.496-0.34,1.055-0.34,2.17
			c0,2.822,1.611,2.885,1.766,2.885c1.023,0,2.047-0.932,2.699-1.459L67.026,203.47z M67.058,194.851c0-0.65-0.402-0.961-0.93-0.961
			c-0.65,0-2.17,0.496-3.473,4.34C63.864,197.859,67.058,196.804,67.058,194.851z"/>
		<path d="M69.567,195.564c0.682-0.807,2.201-2.666,3.316-2.666c0.963,0,0.963,1.146,0.963,1.395c0,1.086-0.342,2.42-0.59,3.381
			c1.24-2.389,3.256-4.775,5.674-4.775c1.365,0,1.551,0.898,1.551,1.52c0,0.961-1.365,4.867-1.891,6.449
			c-0.527,1.611-0.932,2.791-0.932,3.131c0,0.186,0.031,0.496,0.436,0.496c0.402,0,1.488-0.898,2.23-1.611v0.836
			c-0.898,0.869-2.604,2.512-3.844,2.512c-0.496,0-0.93-0.402-0.93-1.146c0-1.705,2.82-8.807,2.82-9.922
			c0-0.684-0.619-0.684-0.65-0.684c-2.76,0-5.83,7.908-6.729,10.729c-0.559,0.217-1.426,0.744-1.643,1.023h-0.807
			c0.527-1.551,1.83-4.898,2.201-5.953c0.342-0.961,1.146-3.564,1.146-4.34c0-0.311-0.061-0.838-0.465-0.838
			c-0.496,0-1.178,0.682-1.859,1.363V195.564z"/>
		<path d="M93.563,191.875c-1.086,2.76-2.078,5.674-2.699,8.061c-0.123,0.436-0.496,1.893-0.496,3.133c0,0.217,0,0.898,0.496,0.898
			c0.465,0,1.023-0.527,2.016-1.488l0.279,0.744c-1.395,1.83-2.914,3.008-3.752,3.008c-1.146,0-1.146-1.768-1.146-2.232
			c0-0.619,0.063-1.086,0.123-1.52c-1.332,1.676-3.1,3.752-4.805,3.752c-0.961,0-1.861-0.807-1.861-2.822
			c0-4.186,4.063-9.395,9.115-9.643c0.188-0.588,0.373-1.084,0.59-1.518L93.563,191.875z M83.579,202.292
			c0,1.705,0.867,1.799,1.023,1.799c1.395,0,3.41-2.232,4-2.914c0.217-1.271,1.27-4.715,1.488-5.334
			C86.151,195.689,83.579,198.789,83.579,202.292z"/>
		<path d="M97.624,190.789c0.465-1.768,0.869-3.689,0.992-4.557c-0.123-0.031-0.311-0.063-0.527-0.063
			c-0.402,0-0.807,0.031-1.334,0.063l0.188-0.621c1.24-0.186,2.324-0.496,3.316-1.115h0.807c-0.311,1.053-1.084,4.029-1.146,4.371
			l-1.861,7.41c2.449-2.449,3.814-3.379,5.178-3.379c1.83,0,2.357,1.705,2.357,2.883c0,4.682-4.619,10.449-9.146,10.449
			c-0.93,0-2.047-0.434-2.047-2.016c0-1.395,0.898-4.775,1.023-5.209L97.624,190.789z M96.509,203.47
			c0,1.023,0.619,1.396,1.363,1.396c2.605,0,5.395-4.9,5.395-8.465c0-1.178-0.744-1.645-1.271-1.645
			c-1.301,0-3.441,2.326-4.371,3.287C96.663,201.951,96.509,202.572,96.509,203.47z"/>
		<path d="M110.026,185.642c1.146-0.217,2.605-0.744,3.225-1.146h1.023c-0.186,0.619-0.434,1.332-1.551,5.488
			c-0.063,0.34-0.434,1.768-0.527,2.045l-2.48,9.365c-0.248,0.93-0.65,2.51-0.65,2.697c0,0.279,0.217,0.309,0.279,0.309
			c0.186,0,0.402-0.154,0.807-0.496c0.682-0.619,0.992-0.836,1.363-1.146v0.93c-1.705,1.645-2.852,2.543-3.689,2.543
			c-0.682,0-1.086-0.496-1.086-1.023c0-0.588,1.303-4.898,1.676-6.107c0.805-2.791,1.363-4.621,2.016-7.379
			c0.123-0.496,1.27-5.24,1.301-5.457c-0.248-0.031-0.434-0.063-0.836-0.063c-0.436,0-0.744,0.031-0.992,0.063L110.026,185.642z"/>
		<path d="M115.017,195.875c0.684-0.744,2.822-2.977,4.217-2.977c0.342,0,0.652,0.186,0.652,0.65c0,0.434-0.063,0.652-0.713,2.605
			l-1.984,5.797c-0.219,0.621-0.559,1.613-0.559,2.047c0,0.248,0.154,0.434,0.371,0.434c0.156,0,0.311-0.092,0.496-0.217
			c0.248-0.217,1.334-1.209,1.52-1.332l0.156,0.805c-1.488,1.52-2.73,2.543-3.723,2.543c-0.619,0-1.084-0.402-1.084-1.115
			c0-0.559,0.248-1.271,0.65-2.449l1.861-5.365c0.279-0.775,0.434-1.24,0.434-1.488c0-0.186-0.123-0.342-0.342-0.342
			c-0.682,0-1.426,0.775-1.674,1.055L115.017,195.875z M121.808,187.595c0,0.652-0.559,1.209-1.209,1.209
			c-0.684,0-1.209-0.557-1.209-1.209c0-0.65,0.525-1.209,1.209-1.209C121.249,186.386,121.808,186.945,121.808,187.595z"/>
		<path d="M122.054,195.564c0.682-0.807,2.201-2.666,3.318-2.666c0.961,0,0.961,1.146,0.961,1.395c0,1.086-0.342,2.42-0.59,3.381
			c1.24-2.389,3.256-4.775,5.674-4.775c1.365,0,1.551,0.898,1.551,1.52c0,0.961-1.365,4.867-1.893,6.449
			c-0.525,1.611-0.93,2.791-0.93,3.131c0,0.186,0.031,0.496,0.434,0.496c0.404,0,1.488-0.898,2.234-1.611v0.836
			c-0.9,0.869-2.605,2.512-3.846,2.512c-0.496,0-0.93-0.402-0.93-1.146c0-1.705,2.82-8.807,2.82-9.922
			c0-0.684-0.619-0.684-0.65-0.684c-2.76,0-5.828,7.908-6.729,10.729c-0.559,0.217-1.426,0.744-1.643,1.023h-0.807
			c0.527-1.551,1.83-4.898,2.201-5.953c0.342-0.961,1.148-3.564,1.148-4.34c0-0.311-0.063-0.838-0.467-0.838
			c-0.496,0-1.178,0.682-1.859,1.363V195.564z"/>
		<path d="M135.042,208.029c-1.303,1.055-1.334,1.984-1.334,2.387c0,0.807,0.621,2.389,3.318,2.389c3.039,0,5.859-1.613,5.859-3.318
			c0-1.146-1.828-1.488-4.217-2.232c-2.232-0.682-3.008-1.457-3.008-2.326c0-0.93,0.436-1.674,1.488-3.068
			c-0.867-0.652-1.363-1.396-1.363-2.977c0-3.039,1.891-5.984,4.744-5.984c1.953,0,2.512,1.209,2.729,1.705
			c1.488-0.311,2.047-0.59,3.039-1.705h0.496c-0.156,0.248-0.467,0.898-0.746,2.17c-1.115,0.031-2.201,0.248-2.541,0.311
			c0.092,0.371,0.186,0.713,0.186,1.395c0,4.125-2.883,5.613-4.559,5.613c-0.34,0-0.805-0.063-1.146-0.156
			c-0.402,0.465-0.93,1.117-0.93,1.645c0,0.867,1.859,1.301,3.316,1.736c1.645,0.496,4.682,1.209,4.682,3.316
			c0,2.172-2.727,4.869-8.215,4.869c-4.9,0-5.24-2.48-5.24-3.164c0-1.768,1.891-2.82,3.256-3.037L135.042,208.029z M137.614,199.843
			c0,0.992,0.467,1.643,1.303,1.643c1.953,0,2.945-4.309,2.945-5.922c0-1.146-0.557-1.768-1.24-1.768
			C138.7,193.796,137.614,198.447,137.614,199.843z"/>
		<path d="M154.788,194.261l0.186-0.713c1.395,0,2.914-0.496,4.154-3.316h0.838l-0.838,3.1h2.945l-0.217,0.93h-2.977l-1.271,4.404
			c-0.465,1.611-1.146,3.938-1.146,4.867c0,0.621,0.371,0.713,0.621,0.713c0.402,0,1.209-0.496,2.293-1.146v0.713
			c-2.418,2.232-3.781,2.418-4.217,2.418c-0.434,0-1.084-0.311-1.084-1.271c0-0.744,0.217-1.828,0.898-4.186l1.859-6.512H154.788z"
			/>
		<path d="M168.769,203.47c-1.021,1.334-2.51,2.76-4.309,2.76c-2.295,0-2.916-2.604-2.916-4.154c0-3.752,2.512-9.178,6.854-9.178
			c1.457,0,2.139,0.867,2.139,1.83c0,2.51-4.496,4.154-6.418,4.588c-0.154,0.496-0.34,1.055-0.34,2.17
			c0,2.822,1.611,2.885,1.766,2.885c1.023,0,2.047-0.932,2.699-1.459L168.769,203.47z M168.8,194.851c0-0.65-0.402-0.961-0.93-0.961
			c-0.65,0-2.17,0.496-3.473,4.34C165.606,197.859,168.8,196.804,168.8,194.851z"/>
		<path d="M178.999,203.47c-1.674,1.582-2.885,2.76-4.838,2.76c-2.262,0-3.225-2.355-3.225-4.123c0-3.877,2.916-9.209,7.07-9.209
			c1.922,0,3.068,1.146,3.068,2.326c0,0.773-0.588,1.146-1.115,1.146c-0.838,0-1.023-0.713-1.146-1.117
			c-0.125-0.434-0.465-1.363-1.457-1.363c-2.203,0-3.908,4.961-3.908,7.752c0,1.611,0.59,2.852,1.768,2.852
			c0.838,0,1.799-0.559,3.379-1.799L178.999,203.47z"/>
		<path d="M188.114,184.496c-0.496,1.891-0.742,2.883-1.209,4.713l-2.014,7.938c0.773-1.117,3.068-4.248,5.27-4.248
			c1.426,0,2.232,1.271,2.232,2.883c0,4.713-3.504,10.945-6.014,10.945c-0.59,0-1.086-0.371-1.086-0.93
			c0-0.621,0.496-0.93,0.836-0.93c0.156,0,0.807,0.123,0.932,0.123c1.52,0,3.225-5.084,3.225-7.596c0-1.055-0.188-2.76-1.426-2.76
			c-1.396,0-4.094,3.348-5.148,7.256c-0.744,2.697-0.805,3.006-0.93,3.41c-0.838,0.248-1.055,0.402-1.582,0.93h-0.65
			c0.186-0.619,0.838-3.131,0.93-3.473l3.193-12.744c0.125-0.496,0.496-2.014,0.838-3.689c-0.65-0.061-1.365,0.063-1.83,0.125
			l0.188-0.775c1.953-0.465,2.355-0.559,3.504-1.178H188.114z"/>
		<path d="M194.499,195.564c0.682-0.807,2.201-2.666,3.318-2.666c0.961,0,0.961,1.146,0.961,1.395c0,1.086-0.342,2.42-0.59,3.381
			c1.24-2.389,3.256-4.775,5.674-4.775c1.365,0,1.551,0.898,1.551,1.52c0,0.961-1.365,4.867-1.893,6.449
			c-0.525,1.611-0.93,2.791-0.93,3.131c0,0.186,0.031,0.496,0.434,0.496c0.404,0,1.488-0.898,2.234-1.611v0.836
			c-0.9,0.869-2.605,2.512-3.846,2.512c-0.496,0-0.93-0.402-0.93-1.146c0-1.705,2.82-8.807,2.82-9.922
			c0-0.684-0.619-0.684-0.65-0.684c-2.76,0-5.828,7.908-6.729,10.729c-0.559,0.217-1.426,0.744-1.643,1.023h-0.807
			c0.527-1.551,1.83-4.898,2.201-5.953c0.342-0.961,1.148-3.564,1.148-4.34c0-0.311-0.063-0.838-0.467-0.838
			c-0.496,0-1.178,0.682-1.859,1.363V195.564z"/>
		<path d="M217.813,197.455c0,3.814-2.604,8.775-6.604,8.775c-2.326,0-3.721-2.232-3.721-4.836c0-3.877,2.418-8.496,6.264-8.496
			C216.915,192.898,217.813,195.47,217.813,197.455z M209.597,202.974c0,0.838,0.156,2.264,1.551,2.264
			c3.102,0,4.559-7.875,4.559-9.332c0-0.342-0.031-2.016-1.582-2.016C210.993,193.89,209.597,201.734,209.597,202.974z"/>
		<path d="M223.173,185.642c1.148-0.217,2.605-0.744,3.227-1.146h1.023c-0.188,0.619-0.434,1.332-1.551,5.488
			c-0.063,0.34-0.434,1.768-0.527,2.045l-2.48,9.365c-0.25,0.93-0.652,2.51-0.652,2.697c0,0.279,0.219,0.309,0.281,0.309
			c0.184,0,0.402-0.154,0.805-0.496c0.684-0.619,0.992-0.836,1.363-1.146v0.93c-1.703,1.645-2.852,2.543-3.687,2.543
			c-0.684,0-1.087-0.496-1.087-1.023c0-0.588,1.302-4.898,1.676-6.107c0.805-2.791,1.363-4.621,2.016-7.379
			c0.121-0.496,1.27-5.24,1.301-5.457c-0.25-0.031-0.434-0.063-0.836-0.063c-0.438,0-0.746,0.031-0.992,0.063L223.173,185.642z"/>
		<path d="M237.837,197.455c0,3.814-2.602,8.775-6.602,8.775c-2.328,0-3.723-2.232-3.723-4.836c0-3.877,2.418-8.496,6.266-8.496
			C236.938,192.898,237.837,195.47,237.837,197.455z M229.622,202.974c0,0.838,0.156,2.264,1.551,2.264
			c3.102,0,4.559-7.875,4.559-9.332c0-0.342-0.031-2.016-1.582-2.016C231.017,193.89,229.622,201.734,229.622,202.974z"/>
		<path d="M239.79,208.029c-1.305,1.055-1.336,1.984-1.336,2.387c0,0.807,0.621,2.389,3.32,2.389c3.039,0,5.859-1.613,5.859-3.318
			c0-1.146-1.828-1.488-4.219-2.232c-2.23-0.682-3.008-1.457-3.008-2.326c0-0.93,0.438-1.674,1.488-3.068
			c-0.867-0.652-1.363-1.396-1.363-2.977c0-3.039,1.891-5.984,4.746-5.984c1.953,0,2.512,1.209,2.727,1.705
			c1.488-0.311,2.047-0.59,3.039-1.705h0.496c-0.156,0.248-0.465,0.898-0.742,2.17c-1.117,0.031-2.203,0.248-2.543,0.311
			c0.09,0.371,0.184,0.713,0.184,1.395c0,4.125-2.883,5.613-4.559,5.613c-0.34,0-0.805-0.063-1.145-0.156
			c-0.402,0.465-0.93,1.117-0.93,1.645c0,0.867,1.859,1.301,3.316,1.736c1.645,0.496,4.684,1.209,4.684,3.316
			c0,2.172-2.73,4.869-8.219,4.869c-4.898,0-5.238-2.48-5.238-3.164c0-1.768,1.891-2.82,3.254-3.037L239.79,208.029z
			 M242.364,199.843c0,0.992,0.465,1.643,1.301,1.643c1.953,0,2.945-4.309,2.945-5.922c0-1.146-0.559-1.768-1.242-1.768
			C243.446,193.796,242.364,198.447,242.364,199.843z"/>
		<path d="M252.376,195.875c0.684-0.744,2.82-2.977,4.215-2.977c0.344,0,0.652,0.186,0.652,0.65c0,0.434-0.063,0.652-0.711,2.605
			l-1.984,5.797c-0.219,0.621-0.559,1.613-0.559,2.047c0,0.248,0.152,0.434,0.371,0.434c0.156,0,0.309-0.092,0.496-0.217
			c0.246-0.217,1.332-1.209,1.52-1.332l0.156,0.805c-1.488,1.52-2.73,2.543-3.723,2.543c-0.621,0-1.086-0.402-1.086-1.115
			c0-0.559,0.25-1.271,0.652-2.449l1.859-5.365c0.281-0.775,0.434-1.24,0.434-1.488c0-0.186-0.121-0.342-0.34-0.342
			c-0.684,0-1.426,0.775-1.676,1.055L252.376,195.875z M259.165,187.595c0,0.652-0.559,1.209-1.207,1.209
			c-0.684,0-1.211-0.557-1.211-1.209c0-0.65,0.527-1.209,1.211-1.209C258.606,186.386,259.165,186.945,259.165,187.595z"/>
		<path d="M266.231,203.47c-1.02,1.334-2.508,2.76-4.309,2.76c-2.293,0-2.914-2.604-2.914-4.154c0-3.752,2.512-9.178,6.852-9.178
			c1.457,0,2.141,0.867,2.141,1.83c0,2.51-4.496,4.154-6.418,4.588c-0.156,0.496-0.34,1.055-0.34,2.17
			c0,2.822,1.609,2.885,1.766,2.885c1.023,0,2.047-0.932,2.699-1.459L266.231,203.47z M266.263,194.851
			c0-0.65-0.402-0.961-0.93-0.961c-0.648,0-2.168,0.496-3.473,4.34C263.071,197.859,266.263,196.804,266.263,194.851z"/>
		<path d="M276.247,194.449c0,0.619-0.496,1.053-1.117,1.053c-0.836,0-1.707-1.178-2.637-1.178c-0.805,0-1.117,0.59-1.117,1.055
			c0,0.713,0.746,1.859,1.242,2.635c0.59,0.9,1.457,2.418,1.457,3.814c0,2.572-2.727,4.402-4.773,4.402
			c-0.93,0-2.391-0.402-2.391-1.52c0-0.65,0.496-1.115,0.992-1.115c0.715,0,1.398,1.084,2.73,1.084c1.055,0,1.797-0.992,1.797-1.705
			c0-0.836-0.867-2.293-1.426-3.193c-1.145-1.83-1.301-2.572-1.301-3.318c0-2.604,2.664-3.564,4.063-3.564
			C275.903,192.898,276.247,193.921,276.247,194.449z"/>
		<path d="M284.86,195.875c0.684-0.744,2.824-2.977,4.219-2.977c0.34,0,0.652,0.186,0.652,0.65c0,0.434-0.063,0.652-0.715,2.605
			l-1.984,5.797c-0.219,0.621-0.559,1.613-0.559,2.047c0,0.248,0.156,0.434,0.371,0.434c0.156,0,0.313-0.092,0.496-0.217
			c0.25-0.217,1.336-1.209,1.52-1.332l0.156,0.805c-1.488,1.52-2.727,2.543-3.719,2.543c-0.621,0-1.086-0.402-1.086-1.115
			c0-0.559,0.246-1.271,0.648-2.449l1.863-5.365c0.277-0.775,0.434-1.24,0.434-1.488c0-0.186-0.125-0.342-0.344-0.342
			c-0.68,0-1.426,0.775-1.672,1.055L284.86,195.875z M291.653,187.595c0,0.652-0.559,1.209-1.211,1.209
			c-0.68,0-1.207-0.557-1.207-1.209c0-0.65,0.527-1.209,1.207-1.209C291.095,186.386,291.653,186.945,291.653,187.595z"/>
		<path d="M291.899,195.564c0.68-0.807,2.199-2.666,3.316-2.666c0.961,0,0.961,1.146,0.961,1.395c0,1.086-0.34,2.42-0.59,3.381
			c1.242-2.389,3.258-4.775,5.676-4.775c1.363,0,1.551,0.898,1.551,1.52c0,0.961-1.367,4.867-1.891,6.449
			c-0.527,1.611-0.934,2.791-0.934,3.131c0,0.186,0.031,0.496,0.438,0.496c0.402,0,1.488-0.898,2.23-1.611v0.836
			c-0.898,0.869-2.605,2.512-3.844,2.512c-0.496,0-0.93-0.402-0.93-1.146c0-1.705,2.82-8.807,2.82-9.922
			c0-0.684-0.621-0.684-0.652-0.684c-2.758,0-5.828,7.908-6.727,10.729c-0.559,0.217-1.426,0.744-1.645,1.023h-0.805
			c0.527-1.551,1.828-4.898,2.199-5.953c0.344-0.961,1.148-3.564,1.148-4.34c0-0.311-0.063-0.838-0.465-0.838
			c-0.496,0-1.18,0.682-1.859,1.363V195.564z"/>
		<path d="M312.7,194.261l0.184-0.713c1.395,0,2.914-0.496,4.156-3.316h0.836l-0.836,3.1h2.945l-0.219,0.93h-2.977l-1.27,4.404
			c-0.465,1.611-1.148,3.938-1.148,4.867c0,0.621,0.375,0.713,0.621,0.713c0.402,0,1.211-0.496,2.293-1.146v0.713
			c-2.418,2.232-3.781,2.418-4.215,2.418s-1.086-0.311-1.086-1.271c0-0.744,0.219-1.828,0.898-4.186l1.863-6.512H312.7z"/>
		<path d="M326.403,184.496c-0.496,1.891-0.746,2.883-1.211,4.713l-2.016,7.938c0.773-1.117,3.07-4.248,5.27-4.248
			c1.43,0,2.234,1.271,2.234,2.883c0,4.713-3.504,10.945-6.016,10.945c-0.59,0-1.086-0.371-1.086-0.93c0-0.621,0.496-0.93,0.84-0.93
			c0.152,0,0.805,0.123,0.93,0.123c1.52,0,3.223-5.084,3.223-7.596c0-1.055-0.184-2.76-1.426-2.76c-1.395,0-4.094,3.348-5.148,7.256
			c-0.742,2.697-0.805,3.006-0.93,3.41c-0.836,0.248-1.055,0.402-1.582,0.93h-0.648c0.184-0.619,0.836-3.131,0.93-3.473
			l3.191-12.744c0.125-0.496,0.496-2.014,0.84-3.689c-0.652-0.061-1.363,0.063-1.832,0.125l0.188-0.775
			c1.953-0.465,2.355-0.559,3.504-1.178H326.403z"/>
		<path d="M339.606,203.47c-1.023,1.334-2.512,2.76-4.309,2.76c-2.297,0-2.914-2.604-2.914-4.154c0-3.752,2.508-9.178,6.852-9.178
			c1.457,0,2.137,0.867,2.137,1.83c0,2.51-4.496,4.154-6.418,4.588c-0.152,0.496-0.34,1.055-0.34,2.17
			c0,2.822,1.613,2.885,1.766,2.885c1.023,0,2.047-0.932,2.699-1.459L339.606,203.47z M339.638,194.851
			c0-0.65-0.402-0.961-0.93-0.961c-0.652,0-2.172,0.496-3.473,4.34C336.442,197.859,339.638,196.804,339.638,194.851z"/>
		<path d="M352.595,185.642c1.148-0.217,2.605-0.744,3.223-1.146h1.023c-0.184,0.619-0.434,1.332-1.551,5.488
			c-0.059,0.34-0.434,1.768-0.527,2.045l-2.48,9.365c-0.246,0.93-0.648,2.51-0.648,2.697c0,0.279,0.215,0.309,0.277,0.309
			c0.188,0,0.402-0.154,0.809-0.496c0.68-0.619,0.992-0.836,1.363-1.146v0.93c-1.707,1.645-2.852,2.543-3.691,2.543
			c-0.68,0-1.086-0.496-1.086-1.023c0-0.588,1.305-4.898,1.676-6.107c0.805-2.791,1.363-4.621,2.016-7.379
			c0.125-0.496,1.27-5.24,1.301-5.457c-0.246-0.031-0.434-0.063-0.836-0.063c-0.434,0-0.742,0.031-0.992,0.063L352.595,185.642z"/>
		<path d="M357.583,195.875c0.684-0.744,2.824-2.977,4.219-2.977c0.34,0,0.652,0.186,0.652,0.65c0,0.434-0.063,0.652-0.715,2.605
			l-1.984,5.797c-0.219,0.621-0.559,1.613-0.559,2.047c0,0.248,0.156,0.434,0.371,0.434c0.156,0,0.313-0.092,0.496-0.217
			c0.25-0.217,1.336-1.209,1.52-1.332l0.156,0.805c-1.488,1.52-2.727,2.543-3.719,2.543c-0.621,0-1.086-0.402-1.086-1.115
			c0-0.559,0.246-1.271,0.648-2.449l1.863-5.365c0.277-0.775,0.434-1.24,0.434-1.488c0-0.186-0.125-0.342-0.344-0.342
			c-0.68,0-1.426,0.775-1.672,1.055L357.583,195.875z M364.376,187.595c0,0.652-0.559,1.209-1.211,1.209
			c-0.68,0-1.207-0.557-1.207-1.209c0-0.65,0.527-1.209,1.207-1.209C363.817,186.386,364.376,186.945,364.376,187.595z"/>
		<path d="M367.782,193.332c1.055-3.906,3.258-8.836,8.063-8.836c1.242,0,2.48,0.527,2.48,1.549c0,0.59-0.465,0.992-1.148,0.992
			c-0.527,0-0.742-0.123-1.52-0.619c-0.711-0.465-1.207-0.559-1.609-0.559c-2.172,0-3.473,4.154-4.281,7.473h3.691l-0.156,0.93
			h-3.75l-1.336,5.365c-1.891,7.627-3.441,14.17-8.555,14.17c-1.863,0-2.449-1.023-2.449-1.551c0-0.65,0.586-1.023,1.082-1.023
			c0.469,0,0.652,0.123,2.047,0.93c0.375,0.186,0.621,0.279,0.93,0.279c1.707,0,2.512-3.783,3.102-6.016l3.164-12.154h-2.82
			l0.184-0.93H367.782z"/>
		<path d="M379.501,203.47c-1.02,1.334-2.508,2.76-4.309,2.76c-2.293,0-2.914-2.604-2.914-4.154c0-3.752,2.512-9.178,6.852-9.178
			c1.457,0,2.141,0.867,2.141,1.83c0,2.51-4.496,4.154-6.418,4.588c-0.156,0.496-0.34,1.055-0.34,2.17
			c0,2.822,1.609,2.885,1.766,2.885c1.023,0,2.047-0.932,2.699-1.459L379.501,203.47z M379.532,194.851
			c0-0.65-0.402-0.961-0.93-0.961c-0.648,0-2.168,0.496-3.473,4.34C376.341,197.859,379.532,196.804,379.532,194.851z"/>
		<path d="M396.802,194.449c0,0.619-0.496,1.053-1.117,1.053c-0.836,0-1.707-1.178-2.637-1.178c-0.805,0-1.117,0.59-1.117,1.055
			c0,0.713,0.746,1.859,1.242,2.635c0.59,0.9,1.457,2.418,1.457,3.814c0,2.572-2.727,4.402-4.773,4.402
			c-0.93,0-2.391-0.402-2.391-1.52c0-0.65,0.496-1.115,0.992-1.115c0.715,0,1.398,1.084,2.73,1.084c1.055,0,1.797-0.992,1.797-1.705
			c0-0.836-0.867-2.293-1.426-3.193c-1.145-1.83-1.301-2.572-1.301-3.318c0-2.604,2.664-3.564,4.063-3.564
			C396.458,192.898,396.802,193.921,396.802,194.449z"/>
		<path d="M405.419,203.47c-1.676,1.582-2.883,2.76-4.84,2.76c-2.262,0-3.223-2.355-3.223-4.123c0-3.877,2.914-9.209,7.07-9.209
			c1.922,0,3.07,1.146,3.07,2.326c0,0.773-0.59,1.146-1.117,1.146c-0.84,0-1.023-0.713-1.148-1.117
			c-0.125-0.434-0.465-1.363-1.457-1.363c-2.203,0-3.906,4.961-3.906,7.752c0,1.611,0.59,2.852,1.766,2.852
			c0.84,0,1.801-0.559,3.383-1.799L405.419,203.47z"/>
		<path d="M408.794,195.875c0.684-0.744,2.824-2.977,4.219-2.977c0.34,0,0.652,0.186,0.652,0.65c0,0.434-0.063,0.652-0.715,2.605
			l-1.984,5.797c-0.219,0.621-0.559,1.613-0.559,2.047c0,0.248,0.156,0.434,0.371,0.434c0.156,0,0.313-0.092,0.496-0.217
			c0.25-0.217,1.336-1.209,1.52-1.332l0.156,0.805c-1.488,1.52-2.727,2.543-3.719,2.543c-0.621,0-1.086-0.402-1.086-1.115
			c0-0.559,0.246-1.271,0.648-2.449l1.863-5.365c0.277-0.775,0.434-1.24,0.434-1.488c0-0.186-0.125-0.342-0.344-0.342
			c-0.68,0-1.426,0.775-1.672,1.055L408.794,195.875z M415.587,187.595c0,0.652-0.559,1.209-1.211,1.209
			c-0.68,0-1.207-0.557-1.207-1.209c0-0.65,0.527-1.209,1.207-1.209C415.028,186.386,415.587,186.945,415.587,187.595z"/>
		<path d="M422.653,203.47c-1.023,1.334-2.512,2.76-4.309,2.76c-2.297,0-2.914-2.604-2.914-4.154c0-3.752,2.508-9.178,6.852-9.178
			c1.457,0,2.137,0.867,2.137,1.83c0,2.51-4.496,4.154-6.418,4.588c-0.152,0.496-0.34,1.055-0.34,2.17
			c0,2.822,1.613,2.885,1.766,2.885c1.023,0,2.047-0.932,2.699-1.459L422.653,203.47z M422.685,194.851
			c0-0.65-0.402-0.961-0.93-0.961c-0.652,0-2.172,0.496-3.473,4.34C419.489,197.859,422.685,196.804,422.685,194.851z"/>
		<path d="M425.192,195.564c0.684-0.807,2.203-2.666,3.32-2.666c0.961,0,0.961,1.146,0.961,1.395c0,1.086-0.344,2.42-0.59,3.381
			c1.238-2.389,3.254-4.775,5.672-4.775c1.367,0,1.551,0.898,1.551,1.52c0,0.961-1.363,4.867-1.891,6.449
			c-0.527,1.611-0.93,2.791-0.93,3.131c0,0.186,0.031,0.496,0.434,0.496s1.488-0.898,2.234-1.611v0.836
			c-0.902,0.869-2.605,2.512-3.848,2.512c-0.496,0-0.93-0.402-0.93-1.146c0-1.705,2.82-8.807,2.82-9.922
			c0-0.684-0.617-0.684-0.648-0.684c-2.762,0-5.828,7.908-6.73,10.729c-0.559,0.217-1.426,0.744-1.641,1.023h-0.809
			c0.527-1.551,1.832-4.898,2.203-5.953c0.34-0.961,1.148-3.564,1.148-4.34c0-0.311-0.063-0.838-0.469-0.838
			c-0.496,0-1.176,0.682-1.859,1.363V195.564z"/>
		<path d="M446.118,203.47c-1.672,1.582-2.883,2.76-4.836,2.76c-2.262,0-3.227-2.355-3.227-4.123c0-3.877,2.918-9.209,7.07-9.209
			c1.922,0,3.07,1.146,3.07,2.326c0,0.773-0.59,1.146-1.117,1.146c-0.836,0-1.023-0.713-1.145-1.117
			c-0.125-0.434-0.465-1.363-1.457-1.363c-2.203,0-3.91,4.961-3.91,7.752c0,1.611,0.59,2.852,1.77,2.852
			c0.836,0,1.797-0.559,3.379-1.799L446.118,203.47z"/>
		<path d="M455.915,203.47c-1.023,1.334-2.512,2.76-4.309,2.76c-2.297,0-2.914-2.604-2.914-4.154c0-3.752,2.508-9.178,6.852-9.178
			c1.457,0,2.137,0.867,2.137,1.83c0,2.51-4.496,4.154-6.418,4.588c-0.152,0.496-0.34,1.055-0.34,2.17
			c0,2.822,1.613,2.885,1.766,2.885c1.023,0,2.047-0.932,2.699-1.459L455.915,203.47z M455.946,194.851
			c0-0.65-0.402-0.961-0.93-0.961c-0.652,0-2.172,0.496-3.473,4.34C452.751,197.859,455.946,196.804,455.946,194.851z"/>
		<path d="M465.927,194.449c0,0.619-0.496,1.053-1.117,1.053c-0.836,0-1.703-1.178-2.633-1.178c-0.809,0-1.117,0.59-1.117,1.055
			c0,0.713,0.742,1.859,1.238,2.635c0.59,0.9,1.461,2.418,1.461,3.814c0,2.572-2.73,4.402-4.777,4.402
			c-0.93,0-2.387-0.402-2.387-1.52c0-0.65,0.496-1.115,0.992-1.115c0.715,0,1.395,1.084,2.727,1.084
			c1.055,0,1.801-0.992,1.801-1.705c0-0.836-0.867-2.293-1.426-3.193c-1.148-1.83-1.305-2.572-1.305-3.318
			c0-2.604,2.668-3.564,4.063-3.564C465.587,192.898,465.927,193.921,465.927,194.449z"/>
	</g>
</g>
</svg>
