<?xml version="1.0" encoding="utf-8"?>
<!-- Generator: Adobe Illustrator 16.0.3, SVG Export Plug-In . SVG Version: 6.00 Build 0)  -->
<!DOCTYPE svg PUBLIC "-//W3C//DTD SVG 1.1//EN" "http://www.w3.org/Graphics/SVG/1.1/DTD/svg11.dtd">
<svg version="1.1" id="Layer_1" xmlns="http://www.w3.org/2000/svg" xmlns:xlink="http://www.w3.org/1999/xlink" x="0px" y="0px"
	 width="512px" height="512px" viewBox="0 0 512 512" enable-background="new 0 0 512 512" xml:space="preserve">
<g>
	<path fill-rule="evenodd" clip-rule="evenodd" fill="#515151" d="M1,257C1,173,1.027,89,0.904,5C0.899,1.576,1.576,0.903,5,0.905
		c168,0.108,336,0.108,504,0c3.424-0.002,4.097,0.671,4.095,4.095c-0.108,168-0.108,336,0,504c0.002,3.424-0.671,4.097-4.095,4.095
		c-168-0.108-336-0.108-504,0c-3.424,0.002-4.101-0.671-4.096-4.095C1.027,425,1,341,1,257z M234.928,343.805
		c0,29.435,0.619,57.759-1.138,86.052c-0.422,6.789-2.185,13.158-7.63,17.875c-2.077,1.799-4.307,3.831-2.787,6.757
		c1.567,3.019,4.775,2.634,7.592,2.195c14.827-2.311,27.031-14.833,28.89-29.72c0.599-4.787,0.925-9.614,1.227-14.433
		c1.389-22.146,1.159-44.309,0.251-66.459c-0.156-3.803,1.218-4.452,4.475-4.355c3.808,0.113,2.581,2.872,2.599,4.671
		c0.237,24.656,0.306,49.313,0.542,73.97c0.174,18.213,9.978,29.338,26.577,35.132c3.464,1.21,7.662,3.56,10.504-0.484
		c2.697-3.84-0.747-6.917-3.012-9.632c-6.056-7.256-8.534-15.425-8.413-24.902c0.304-23.66,0.078-47.327,0.154-70.991
		c0.005-1.441-1.149-3.781,1.142-4.21c1.645-0.307,2.912,1.474,3.706,2.949c2.677,4.981,3.246,10.466,3.342,15.976
		c0.313,17.994,0.567,35.99,0.734,53.986c0.178,19.141,22.935,34.169,41.007,27.057c3.609-1.421,3.373-3.286,0.82-5.397
		c-2.82-2.333-5.82-4.447-8.709-6.698c-6.157-4.796-9.225-10.718-9.029-18.919c0.459-19.319,0.598-38.668,0.096-57.984
		c-0.472-18.138-3.001-35.783-21.646-46.954c14.973-1.906,28.584-3.811,41.93-7.282c34.71-9.031,58.621-29.047,66.584-65.269
		c4.461-20.293,6.433-40.766,3.72-61.518c-2.58-19.734-10.513-37.011-23.743-51.832c-2.709-3.035-3.917-5.89-3.101-10.274
		c1.273-6.84,1.715-13.895,1.857-20.872c0.216-10.543-0.974-20.92-5.384-30.735c-1.422-3.165-3.428-4.565-6.885-4.546
		c-5.237,0.028-10.239,1.139-15.178,2.679c-15.361,4.788-29.435,12.286-43.104,20.613c-1.731,1.054-3.203,1.854-5.505,1.304
		c-21.729-5.193-43.843-6.065-66.035-5.109c-15.97,0.688-31.953,1.77-47.205,7.248c-2.377,0.854-3.801-0.496-5.407-1.59
		c-7.992-5.438-16.249-10.429-25.017-14.517c-11.064-5.16-22.395-9.334-34.826-9.766c-3.382-0.118-4.981,1.044-6.21,4.179
		c-7.313,18.652-7.756,37.678-3.2,56.918c0.833,3.519,0.325,5.918-1.973,8.541c-13.741,15.686-21.65,33.741-22.201,54.828
		c-0.35,13.371,0.355,26.657,2.75,39.809c6.563,36.037,26.24,61.556,60.646,75.187c6.972,2.763,14.104,4.963,21.372,6.785
		c10.236,2.564,20.698,3.874,31.89,5.402c-9.088,7.912-15.672,16.49-17.665,27.879c-0.353,2.016-2.151,2.376-3.619,3.05
		c-21.225,9.747-45.006,4.097-59.509-14.128c-4.771-5.994-9.282-12.205-14.91-17.47c-7.329-6.856-15.789-10.344-25.967-8.871
		c-2.332,0.337-5.023,0.443-5.786,3.061c-0.777,2.668,1.612,4.129,3.364,5.603c1.141,0.958,2.463,1.702,3.71,2.532
		c7.016,4.673,12.976,10.389,17.581,17.501c3.183,4.917,5.408,10.295,7.879,15.563c7.404,15.786,19.336,26.014,36.642,29.475
		c11.428,2.285,22.929,1.457,34.344,0.057c3.734-0.458,4.011,0.737,3.992,3.767c-0.079,12.498-0.235,25.006,0.192,37.492
		c0.262,7.647-2.832,13.105-8.68,17.473c-3.067,2.29-6.149,4.568-9.089,7.016c-1.269,1.057-2.352,2.57-1.611,4.384
		c0.646,1.581,2.335,1.834,3.788,2.003c12.957,1.513,24.431-1.825,34.034-10.811c3.825-3.579,5.665-8.055,5.562-13.408
		c-0.135-6.996-0.047-13.998,0.035-20.997c0.162-13.826,0.214-27.658,0.668-41.476C227.14,353.411,229.387,348.279,234.928,343.805z
		"/>
	<path fill-rule="evenodd" clip-rule="evenodd" fill="#FDFDFD" d="M234.928,343.805c-5.541,4.475-7.788,9.606-7.977,15.355
		c-0.454,13.817-0.506,27.649-0.668,41.476c-0.082,6.999-0.17,14.001-0.035,20.997c0.104,5.354-1.736,9.829-5.562,13.408
		c-9.604,8.985-21.077,12.323-34.034,10.811c-1.453-0.169-3.143-0.422-3.788-2.003c-0.74-1.813,0.343-3.327,1.611-4.384
		c2.939-2.447,6.021-4.726,9.089-7.016c5.848-4.367,8.941-9.825,8.68-17.473c-0.428-12.486-0.271-24.994-0.192-37.492
		c0.019-3.029-0.258-4.225-3.992-3.767c-11.415,1.4-22.916,2.229-34.344-0.057c-17.306-3.461-29.237-13.688-36.642-29.475
		c-2.471-5.269-4.696-10.646-7.879-15.563c-4.605-7.112-10.565-12.828-17.581-17.501c-1.247-0.83-2.569-1.574-3.71-2.532
		c-1.752-1.474-4.142-2.935-3.364-5.603c0.763-2.617,3.454-2.724,5.786-3.061c10.178-1.473,18.638,2.015,25.967,8.871
		c5.628,5.265,10.14,11.476,14.91,17.47c14.503,18.225,38.284,23.875,59.509,14.128c1.468-0.674,3.267-1.034,3.619-3.05
		c1.993-11.389,8.577-19.967,17.665-27.879c-11.191-1.528-21.653-2.838-31.89-5.402c-7.269-1.822-14.4-4.022-21.372-6.785
		c-34.405-13.631-54.082-39.149-60.646-75.187c-2.395-13.151-3.1-26.438-2.75-39.809c0.551-21.087,8.46-39.143,22.201-54.828
		c2.298-2.623,2.806-5.022,1.973-8.541c-4.556-19.24-4.112-38.266,3.2-56.918c1.229-3.135,2.828-4.297,6.21-4.179
		c12.432,0.432,23.762,4.605,34.826,9.766c8.768,4.088,17.024,9.078,25.017,14.517c1.606,1.094,3.03,2.444,5.407,1.59
		c15.252-5.479,31.235-6.56,47.205-7.248c22.192-0.956,44.306-0.084,66.035,5.109c2.302,0.551,3.773-0.25,5.505-1.304
		c13.669-8.327,27.742-15.825,43.104-20.613c4.938-1.54,9.94-2.65,15.178-2.679c3.457-0.02,5.463,1.381,6.885,4.546
		c4.41,9.815,5.6,20.192,5.384,30.735c-0.143,6.978-0.584,14.032-1.857,20.872c-0.816,4.385,0.392,7.239,3.101,10.274
		c13.23,14.821,21.163,32.098,23.743,51.832c2.713,20.752,0.741,41.225-3.72,61.518c-7.963,36.222-31.874,56.237-66.584,65.269
		c-13.346,3.472-26.957,5.376-41.93,7.282c18.645,11.171,21.174,28.816,21.646,46.954c0.502,19.316,0.363,38.665-0.096,57.984
		c-0.195,8.201,2.872,14.123,9.029,18.919c2.889,2.251,5.889,4.365,8.709,6.698c2.553,2.111,2.789,3.977-0.82,5.397
		c-18.072,7.112-40.829-7.916-41.007-27.057c-0.167-17.996-0.422-35.992-0.734-53.986c-0.096-5.51-0.665-10.994-3.342-15.976
		c-0.794-1.476-2.062-3.256-3.706-2.949c-2.291,0.429-1.137,2.769-1.142,4.21c-0.076,23.664,0.149,47.331-0.154,70.991
		c-0.121,9.478,2.357,17.646,8.413,24.902c2.265,2.715,5.709,5.792,3.012,9.632c-2.842,4.044-7.04,1.694-10.504,0.484
		c-16.6-5.794-26.403-16.919-26.577-35.132c-0.236-24.656-0.305-49.313-0.542-73.97c-0.018-1.799,1.209-4.558-2.599-4.671
		c-3.257-0.097-4.631,0.553-4.475,4.355c0.908,22.15,1.138,44.313-0.251,66.459c-0.302,4.818-0.628,9.646-1.227,14.433
		c-1.858,14.887-14.063,27.409-28.89,29.72c-2.816,0.438-6.024,0.823-7.592-2.195c-1.52-2.926,0.71-4.958,2.787-6.757
		c5.445-4.717,7.208-11.086,7.63-17.875C235.547,401.563,234.928,373.239,234.928,343.805z"/>
</g>
</svg>
