<?xml version="1.0" encoding="utf-8"?>
<!-- Generator: Adobe Illustrator 16.0.3, SVG Export Plug-In . SVG Version: 6.00 Build 0)  -->
<!DOCTYPE svg PUBLIC "-//W3C//DTD SVG 1.1//EN" "http://www.w3.org/Graphics/SVG/1.1/DTD/svg11.dtd">
<svg version="1.1" id="Layer_1" xmlns="http://www.w3.org/2000/svg" xmlns:xlink="http://www.w3.org/1999/xlink" x="0px" y="0px"
	 width="500px" height="500px" viewBox="0 0 500 500" enable-background="new 0 0 500 500" xml:space="preserve">
<g>
	<path fill-rule="evenodd" clip-rule="evenodd" fill="#5F5D85" d="M1,501C1,335.833,1.015,170.667,0.906,5.5
		C0.904,1.751,1.75,0.903,5.5,0.906c163.666,0.108,327.333,0.108,491,0c3.748-0.003,4.597,0.844,4.594,4.594
		c-0.108,163.666-0.108,327.333,0,491c0.003,3.748-0.843,4.597-4.594,4.594C331.334,500.985,166.167,501,1,501z M403.869,251.541
		c0-50.65,0.007-101.301-0.003-151.951c-0.005-22.638-15.273-37.81-38.032-37.811c-76.475-0.004-152.95-0.004-229.425,0
		c-22.738,0.001-37.957,15.157-37.96,37.887c-0.016,100.967-0.019,201.934,0.002,302.9c0.005,22.697,15.251,37.843,38.036,37.847
		c76.475,0.014,152.95,0.017,229.425-0.001c22.755-0.006,37.955-15.227,37.956-37.921
		C403.871,352.175,403.869,301.857,403.869,251.541z"/>
	<path fill-rule="evenodd" clip-rule="evenodd" fill="#F9F9FA" d="M403.869,251.541c0,50.316,0.002,100.634-0.001,150.95
		c-0.001,22.694-15.201,37.915-37.956,37.921c-76.475,0.018-152.95,0.015-229.425,0.001c-22.785-0.004-38.031-15.149-38.036-37.847
		c-0.021-100.967-0.018-201.934-0.002-302.9c0.003-22.729,15.222-37.886,37.96-37.887c76.475-0.004,152.95-0.004,229.425,0
		c22.759,0.001,38.027,15.173,38.032,37.811C403.876,150.24,403.869,200.891,403.869,251.541z M111.122,250.897
		c0,49.996-0.007,99.992,0.004,149.989c0.003,16.059,10.907,26.963,27.007,26.966c75.328,0.014,150.655,0.01,225.983-0.013
		c1.986,0,4.016-0.062,5.951-0.457c13.655-2.786,21.315-12.979,21.319-28.401c0.018-70.995,0.008-141.99,0.009-212.985
		c0-27.997,0.075-55.996-0.03-83.993c-0.063-16.777-10.89-27.814-27.408-27.83c-75.161-0.068-150.322-0.075-225.483,0.002
		c-16.692,0.018-27.346,11.015-27.349,27.733C111.117,151.571,111.122,201.234,111.122,250.897z"/>
	<path fill-rule="evenodd" clip-rule="evenodd" fill="#5F5D85" d="M111.122,250.897c0-49.663-0.005-99.326,0.003-148.989
		c0.003-16.719,10.656-27.716,27.349-27.733c75.161-0.077,150.322-0.07,225.483-0.002c16.519,0.016,27.346,11.053,27.408,27.83
		c0.105,27.997,0.03,55.996,0.03,83.993c-0.001,70.995,0.009,141.99-0.009,212.985c-0.004,15.423-7.664,25.615-21.319,28.401
		c-1.936,0.396-3.965,0.457-5.951,0.457c-75.328,0.022-150.655,0.026-225.983,0.013c-16.1-0.003-27.004-10.907-27.007-26.966
		C111.115,350.89,111.122,300.894,111.122,250.897z M330.893,309.028c0-24.497,0.073-48.995-0.022-73.491
		c-0.083-21.394-10.728-36.642-29.594-42.751c-5.583-1.808-11.328-2.749-17.17-3.081c-23.197-1.315-45.359,3.784-67.095,11.156
		c-4.104,1.392-5.199,1.114-5.158-3.604c0.226-26.328,0.009-52.66,0.208-78.989c0.032-4.247-1.229-5.27-5.304-5.136
		c-10.82,0.355-21.663,0.517-32.48,0.205c-4.61-0.133-5.396,1.412-5.376,5.626c0.203,42.494,0.193,84.988,0.243,127.481
		c0.007,6.492,0,6.476,6.079,4.164c25.226-9.593,50.627-18.637,77.34-23.252c8.875-1.534,17.834-2.668,26.812-0.668
		c8.012,1.785,10.496,4.979,10.496,13.207c0.002,47.827,0.052,95.655-0.089,143.483c-0.013,4.148,1.093,5.38,5.271,5.257
		c10.323-0.304,20.666-0.284,30.991-0.008c4.055,0.107,4.953-1.287,4.929-5.109C330.814,358.689,330.892,333.858,330.893,309.028z
		 M268.722,167.844c15.169,0,29.124-0.021,43.079,0.027c1.688,0.006,2.783-0.647,3.758-1.948
		c11.504-15.351,21.987-31.313,29.886-48.875c1.373-3.054,0.415-3.668-2.561-3.646c-13.319,0.097-26.641,0.061-39.961,0.028
		c-1.77-0.005-3.166,0.183-4.037,2.088C290.644,133.527,281.378,150.965,268.722,167.844z M170.349,302.553
		c0,28.939,0,56.729,0,85.342c13.974-13.971,27.308-27.389,40.774-40.672c2.027-1.999,0.93-2.966-0.442-4.329
		c-6.486-6.446-12.941-12.922-19.405-19.39C184.498,316.722,177.725,309.937,170.349,302.553z"/>
	<path fill-rule="evenodd" clip-rule="evenodd" fill="#FDFDFD" d="M330.893,309.028c-0.001,24.83-0.078,49.661,0.081,74.491
		c0.024,3.822-0.874,5.217-4.929,5.109c-10.325-0.276-20.668-0.296-30.991,0.008c-4.179,0.123-5.284-1.108-5.271-5.257
		c0.141-47.828,0.091-95.656,0.089-143.483c0-8.229-2.484-11.422-10.496-13.207c-8.978-2-17.937-0.866-26.812,0.668
		c-26.713,4.615-52.114,13.659-77.34,23.252c-6.079,2.312-6.072,2.328-6.079-4.164c-0.05-42.493-0.04-84.987-0.243-127.481
		c-0.02-4.214,0.766-5.759,5.376-5.626c10.817,0.312,21.66,0.15,32.48-0.205c4.074-0.134,5.336,0.889,5.304,5.136
		c-0.199,26.329,0.018,52.661-0.208,78.989c-0.041,4.718,1.054,4.995,5.158,3.604c21.735-7.372,43.897-12.472,67.095-11.156
		c5.842,0.332,11.587,1.273,17.17,3.081c18.866,6.109,29.511,21.357,29.594,42.751C330.966,260.033,330.893,284.531,330.893,309.028
		z"/>
	<path fill-rule="evenodd" clip-rule="evenodd" fill="#F9F9FA" d="M268.722,167.844c12.656-16.879,21.922-34.316,30.164-52.326
		c0.871-1.905,2.268-2.093,4.037-2.088c13.32,0.032,26.642,0.068,39.961-0.028c2.976-0.021,3.934,0.593,2.561,3.646
		c-7.898,17.562-18.382,33.524-29.886,48.875c-0.975,1.301-2.07,1.954-3.758,1.948C297.846,167.822,283.891,167.844,268.722,167.844
		z"/>
	<path fill-rule="evenodd" clip-rule="evenodd" fill="#FDFDFD" d="M170.349,302.553c7.376,7.384,14.149,14.169,20.927,20.951
		c6.464,6.468,12.919,12.943,19.405,19.39c1.372,1.363,2.47,2.33,0.442,4.329c-13.467,13.283-26.801,26.701-40.774,40.672
		C170.349,359.282,170.349,331.492,170.349,302.553z"/>
</g>
</svg>
